<svg width="100" height="100" version="1.1" xmlns="http://www.w3.org/2000/svg" desc="Created with imagetracer.js version 1.2.6" ><path fill="rgb(0,0,0)" stroke="rgb(0,0,0)" stroke-width="1" opacity="0.24705882352941178" d="M 0 0 L 11 0.5 Q 4.5 1 2 5.5 L 0.5 11 L 0 0 Z " /><path fill="rgb(0,0,0)" stroke="rgb(0,0,0)" stroke-width="1" opacity="0.24705882352941178" d="M 89.5 0 L 100 0 L 100 10.5 L 99 10.5 Q 98.9 4.1 94.5 2 L 89.5 1 L 89.5 0 Z " /><path fill="rgb(0,0,0)" stroke="rgb(0,0,0)" stroke-width="1" opacity="0.24705882352941178" d="M 0.5 89 Q 1 95.5 5.5 98 L 11 99.5 L 0 100 L 0.5 89 Z " /><path fill="rgb(0,0,0)" stroke="rgb(0,0,0)" stroke-width="1" opacity="0.24705882352941178" d="M 99.5 89 L 100 100 L 89 99.5 Q 95.5 99 98 94.5 L 99.5 89 Z " /><path fill="rgb(0,0,0)" stroke="rgb(0,0,0)" stroke-width="1" opacity="1" d="M 11.5 0 L 88.5 0 Q 95.1 0.9 98 5.5 L 100 11.5 L 100 88.5 Q 99.1 95.1 94.5 98 L 88.5 100 L 11.5 100 Q 4.9 99.1 2 94.5 L 0 88.5 L 0 11.5 Q 0.9 4.9 5.5 2 L 11.5 0 Z M 27 15 L 26 18 L 31 26 Q 32 28 30 27 L 26 32 Q 25 38 30 39 L 33 38 L 32 34 L 36 36 L 26 50 L 23 52 L 18 59 L 19 64 L 24 67 Q 29 68 31 64 L 32 64 L 33 62 L 46 62 L 41 78 L 48 80 L 68 80 L 73 79 L 80 62 Q 80 52 74 49 L 77 45 L 76 39 L 72 38 L 72 42 L 70 41 L 69 35 Q 67 31 63 31 L 63 30 L 62 25 Q 61 22 56 23 L 57 28 L 51 27 L 48 23 L 44 20 L 42 26 L 36 23 Q 33 24 34 22 L 27 15 Z " /><path fill="rgb(223,92,147)" stroke="rgb(223,92,147)" stroke-width="1" opacity="1" d="M 27.5 16 L 29 19 L 27 18.5 L 27.5 16 Z " /><path fill="rgb(223,92,147)" stroke="rgb(223,92,147)" stroke-width="1" opacity="1" d="M 32.5 21 L 30.5 24 L 32.5 21 Z " /><path fill="rgb(223,92,147)" stroke="rgb(223,92,147)" stroke-width="1" opacity="1" d="M 57 23 Q 60.8 22.3 62 25.5 L 61 30.5 Q 61.8 32.8 65.5 32 L 69 35.5 L 70 42 L 73 40.5 Q 72.3 38.3 74.5 39 Q 77.3 40.3 76 45.5 L 73 47 L 78 53.5 L 79 63.5 L 74 72.5 L 74 77 Q 71.3 78.1 72 75.5 L 70 71 L 64 66.5 L 60 60.5 L 59 48.5 L 57.5 47 L 52 42.5 L 49 36.5 L 49 31.5 L 50 28.5 L 49.5 27 L 54.5 29 L 58 26.5 L 57 23 Z " /><path fill="rgb(223,92,147)" stroke="rgb(223,92,147)" stroke-width="1" opacity="1" d="M 35.5 24 L 36 25.5 L 35 28 L 33 28.5 L 35.5 32 L 39 27.5 L 38.5 26 Q 43.8 24.3 42 29.5 L 40.5 29 L 36 33.5 L 37 36.5 L 36 36.5 L 34.5 34 L 32.5 33 L 32 36.5 L 32.5 38 Q 27.8 38.8 27 35.5 Q 25.8 28.3 30.5 27 Q 34.9 28.5 34 25.5 L 35.5 24 Z " /><path fill="rgb(200,194,169)" stroke="rgb(200,194,169)" stroke-width="1" opacity="1" d="M 29.5 18 L 28.5 20 L 29.5 18 Z " /><path fill="rgb(200,194,169)" stroke="rgb(200,194,169)" stroke-width="1" opacity="1" d="M 45.5 20 L 46.5 22 L 44 21.5 L 45.5 20 Z " /><path fill="rgb(200,194,169)" stroke="rgb(200,194,169)" stroke-width="1" opacity="1" d="M 29.5 21 L 32.5 22 L 35 23.5 L 34 27 Q 31.3 28.1 32 25.5 L 29.5 21 Z " /><path fill="rgb(200,194,169)" stroke="rgb(200,194,169)" stroke-width="1" opacity="1" d="M 36.5 25 Q 40.7 26.8 38 28.5 L 35.5 32 L 33 28.5 L 35 28 L 36.5 25 Z " /><path fill="rgb(200,194,169)" stroke="rgb(200,194,169)" stroke-width="1" opacity="1" d="M 49.5 28 L 50 30.5 L 49 30.5 L 49.5 28 Z " /><path fill="rgb(200,194,169)" stroke="rgb(200,194,169)" stroke-width="1" opacity="1" d="M 40.5 29 Q 43 30.2 42 34 L 37.5 36 L 36 33.5 L 40.5 29 Z " /><path fill="rgb(200,194,169)" stroke="rgb(200,194,169)" stroke-width="1" opacity="1" d="M 35.5 37 L 34.5 39 L 35.5 37 Z " /><path fill="rgb(200,194,169)" stroke="rgb(200,194,169)" stroke-width="1" opacity="1" d="M 31.5 42 L 30.5 44 L 31.5 42 Z " /><path fill="rgb(200,194,169)" stroke="rgb(200,194,169)" stroke-width="1" opacity="1" d="M 39.5 46 L 42.5 47 L 44 46.5 L 40.5 48 L 39.5 46 Z " /><path fill="rgb(200,194,169)" stroke="rgb(200,194,169)" stroke-width="1" opacity="1" d="M 25.5 50 L 25 51.5 Q 25.8 53.8 23.5 53 Q 18.9 54.9 20 62.5 Q 20.5 65.5 24.5 65 L 29.5 59 L 30.5 62 L 32.5 61 L 29.5 65 L 22.5 66 Q 17.8 64.8 19 57.5 L 25.5 50 Z M 30 62 L 28 64 L 30 64 L 30 62 Z " /><path fill="rgb(200,194,169)" stroke="rgb(200,194,169)" stroke-width="1" opacity="1" d="M 52 51 Q 55.3 49.7 54 54.5 L 49.5 61 L 34.5 62 L 34.5 61 Q 46.7 62.7 50 55.5 L 52 51 Z " /><path fill="rgb(200,194,169)" stroke="rgb(200,194,169)" stroke-width="1" opacity="1" d="M 24.5 54 L 27 57.5 L 24 59 L 23 55.5 L 24.5 54 Z " /><path fill="rgb(200,194,169)" stroke="rgb(200,194,169)" stroke-width="1" opacity="1" d="M 62.5 64 L 63.5 66 L 62.5 64 Z " /><path fill="rgb(200,194,169)" stroke="rgb(200,194,169)" stroke-width="1" opacity="1" d="M 72.5 77 L 71.5 79 L 70 78.5 L 72.5 77 Z " /><path fill="rgb(200,194,169)" stroke="rgb(200,194,169)" stroke-width="1" opacity="1" d="M 52.5 79 L 55 79.5 L 52.5 80 L 52.5 79 Z " /><path fill="rgb(200,194,169)" stroke="rgb(200,194,169)" stroke-width="1" opacity="1" d="M 61.5 79 L 64 79.5 L 61.5 80 L 61.5 79 Z " /><path fill="rgb(90,57,74)" stroke="rgb(90,57,74)" stroke-width="1" opacity="1" d="M 26.5 15 L 27 17.5 L 26 17.5 L 26.5 15 Z " /><path fill="rgb(90,57,74)" stroke="rgb(90,57,74)" stroke-width="1" opacity="1" d="M 28.5 16 L 33.5 22 L 28.5 16 Z " /><path fill="rgb(90,57,74)" stroke="rgb(90,57,74)" stroke-width="1" opacity="1" d="M 27.5 19 L 28.5 21 L 27.5 19 Z " /><path fill="rgb(90,57,74)" stroke="rgb(90,57,74)" stroke-width="1" opacity="1" d="M 35.5 23 Q 36.8 25.8 41 25.5 L 37.5 26 L 35.5 23 Z " /><path fill="rgb(90,57,74)" stroke="rgb(90,57,74)" stroke-width="1" opacity="1" d="M 56.5 23 L 58 26.5 L 57 26.5 L 56.5 23 Z " /><path fill="rgb(90,57,74)" stroke="rgb(90,57,74)" stroke-width="1" opacity="1" d="M 60.5 23 L 61.5 25 L 60.5 23 Z " /><path fill="rgb(90,57,74)" stroke="rgb(90,57,74)" stroke-width="1" opacity="1" d="M 30.5 24 L 32 26.5 L 31 26.5 L 30.5 24 Z " /><path fill="rgb(90,57,74)" stroke="rgb(90,57,74)" stroke-width="1" opacity="1" d="M 62.5 26 L 63 29.5 L 62.5 31 L 65 31.5 L 62.5 32 Q 59.8 30.8 62 29.5 L 62.5 26 Z " /><path fill="rgb(90,57,74)" stroke="rgb(90,57,74)" stroke-width="1" opacity="1" d="M 29.5 27 L 27.5 30 L 29.5 27 Z " /><path fill="rgb(90,57,74)" stroke="rgb(90,57,74)" stroke-width="1" opacity="1" d="M 26.5 31 L 27 34.5 L 26 34.5 L 26.5 31 Z " /><path fill="rgb(90,57,74)" stroke="rgb(90,57,74)" stroke-width="1" opacity="1" d="M 66.5 32 L 68.5 35 L 66.5 32 Z " /><path fill="rgb(90,57,74)" stroke="rgb(90,57,74)" stroke-width="1" opacity="1" d="M 27.5 36 L 32 38.5 L 29.5 39 L 27.5 36 Z " /><path fill="rgb(90,57,74)" stroke="rgb(90,57,74)" stroke-width="1" opacity="1" d="M 72 38 L 74 38.5 L 72.5 41 L 72 38 Z " /><path fill="rgb(90,57,74)" stroke="rgb(90,57,74)" stroke-width="1" opacity="1" d="M 76.5 41 L 77 44.5 L 76 44.5 L 76.5 41 Z " /><path fill="rgb(90,57,74)" stroke="rgb(90,57,74)" stroke-width="1" opacity="1" d="M 40.5 42 L 44 43.5 L 42.5 47 L 39 45.5 L 40.5 42 Z " /><path fill="rgb(90,57,74)" stroke="rgb(90,57,74)" stroke-width="1" opacity="1" d="M 29.5 44 L 28.5 46 L 29.5 44 Z " /><path fill="rgb(90,57,74)" stroke="rgb(90,57,74)" stroke-width="1" opacity="1" d="M 73.5 47 L 78 52.5 L 73 48.5 L 73.5 47 Z " /><path fill="rgb(90,57,74)" stroke="rgb(90,57,74)" stroke-width="1" opacity="1" d="M 22.5 52 L 20.5 55 L 22.5 52 Z " /><path fill="rgb(90,57,74)" stroke="rgb(90,57,74)" stroke-width="1" opacity="1" d="M 18.5 58 L 19 61.5 L 18 61.5 L 18.5 58 Z " /><path fill="rgb(90,57,74)" stroke="rgb(90,57,74)" stroke-width="1" opacity="1" d="M 79.5 58 L 80 61.5 L 79 61.5 L 79.5 58 Z " /><path fill="rgb(90,57,74)" stroke="rgb(90,57,74)" stroke-width="1" opacity="1" d="M 23.5 66 L 27 66.5 L 23.5 67 L 23.5 66 Z " /><path fill="rgb(90,57,74)" stroke="rgb(90,57,74)" stroke-width="1" opacity="1" d="M 41.5 77 L 44 78.5 L 42.5 79 L 41.5 77 Z " /><path fill="rgb(90,57,74)" stroke="rgb(90,57,74)" stroke-width="1" opacity="1" d="M 73.5 77 L 72.5 79 L 73.5 77 Z " /><path fill="rgb(90,57,74)" stroke="rgb(90,57,74)" stroke-width="1" opacity="1" d="M 47.5 79 L 51 79.5 L 47.5 80 L 47.5 79 Z " /><path fill="rgb(90,57,74)" stroke="rgb(90,57,74)" stroke-width="1" opacity="1" d="M 64.5 79 L 68 79.5 L 64.5 80 L 64.5 79 Z " /><path fill="rgb(224,224,225)" stroke="rgb(224,224,225)" stroke-width="1" opacity="1" d="M 29 19 L 32 20.5 Q 30.5 23.5 29 20.5 L 29 19 Z " /><path fill="rgb(224,224,225)" stroke="rgb(224,224,225)" stroke-width="1" opacity="1" d="M 45.5 21 Q 51.1 25.4 49 37.5 L 56.5 47 L 59 48.5 Q 57.7 56.7 60 61.5 L 71 73.5 L 72 78 L 69.5 79 L 55.5 80 L 54.5 79 Q 46.5 79.7 42 78 L 47 61 Q 50.8 61.8 52 58.5 L 54 51 Q 51.3 49.9 52 52.5 L 46.5 59 Q 41.8 62.8 31.5 61 L 30 62.5 Q 30.8 64.8 28.5 64 L 27 64.5 Q 30.5 64 30 59.5 L 28 60.5 L 24.5 65 Q 20.5 65.5 20 62.5 Q 18.9 54.9 23.5 53 Q 25.8 53.8 25 51.5 L 38.5 35 L 42 34 Q 40.4 24.7 45.5 21 Z M 42 41 L 41 42 Q 37 41 39 47 L 43 48 Q 45 47 44 42 L 42 41 Z M 25 54 L 23 56 L 24 59 L 27 58 L 25 54 Z " /></svg>