<svg width="40" height="40" viewBox="0 0 40 40" fill="none" xmlns="http://www.w3.org/2000/svg">
<g clip-path="url(#clip0_7_162)">
<rect width="40" height="40" fill="white"/>
<rect width="40" height="40" fill="url(#paint0_linear_7_162)"/>
<rect width="40" height="40" fill="url(#paint1_linear_7_162)"/>
<rect width="40" height="40" fill="url(#paint2_linear_7_162)"/>
<path d="M21.0488 7.00977C22.0793 7.02891 23.0269 7.07671 23.8916 7.15332C25.0445 7.25546 26.0501 7.40801 26.9082 7.6123C27.1387 7.66773 27.3626 7.72861 27.5801 7.79297C28.1241 7.95394 28.6277 8.14254 29.0908 8.35938C29.1835 8.40276 29.2748 8.44657 29.3643 8.49219C29.543 8.58336 29.7151 8.67919 29.8809 8.7793C30.1296 8.92952 30.3634 9.0904 30.583 9.26074C30.6563 9.31756 30.7278 9.37551 30.7979 9.43457C30.9377 9.55257 31.0713 9.67482 31.1982 9.80176C31.3909 9.99438 31.5734 10.2009 31.7451 10.4219C31.974 10.7164 32.1843 11.036 32.376 11.3809C32.4239 11.4671 32.47 11.5552 32.5156 11.6445C32.6069 11.8234 32.6934 12.0087 32.7754 12.2002C32.9392 12.5829 33.0843 12.9908 33.2109 13.4238C33.2742 13.6402 33.3337 13.8628 33.3877 14.0918C33.4781 14.4711 33.5581 14.8797 33.6289 15.3174C33.8413 16.6308 33.965 18.2071 34 20.0459V20.5713C33.9533 23.0225 33.7495 25.0069 33.3877 26.5244C32.9558 28.3689 32.2256 29.7998 31.1982 30.8154C30.1826 31.8426 28.7525 32.572 26.9082 33.0039C25.1921 33.4125 22.8864 33.6172 19.9912 33.6172C17.0844 33.6172 14.7786 33.4125 13.0742 33.0039C11.2416 32.572 9.81145 31.8426 8.78418 30.8154C7.76853 29.7998 7.03932 28.3689 6.5957 26.5244C6.23385 24.9835 6.03502 22.9698 6 20.4834V20.1328C6.03504 17.6464 6.23383 15.6327 6.5957 14.0918C7.03932 12.2591 7.76859 10.829 8.78418 9.80176C9.81149 8.78612 11.2414 8.05592 13.0742 7.6123C14.7786 7.20372 17.0844 7.00001 19.9912 7L21.0488 7.00977ZM25.6973 23.1133C25.3006 23.0899 24.9617 23.2062 24.6816 23.4629C24.495 23.6262 24.2969 23.7898 24.0869 23.9531H24.0518C22.9317 24.7931 21.5779 25.2129 19.9912 25.2129C18.358 25.2128 16.9695 24.7931 15.8262 23.9531C15.6862 23.8365 15.5581 23.7192 15.4414 23.6025C15.1848 23.2993 14.8694 23.1366 14.4961 23.1133C14.0995 23.09 13.7614 23.2063 13.4814 23.4629C13.1781 23.7196 13.0145 24.0467 12.9912 24.4434C12.968 24.8165 13.0844 25.1548 13.3408 25.458C13.5508 25.6914 13.808 25.9249 14.1113 26.1582C14.1346 26.1582 14.1465 26.17 14.1465 26.1934C15.7564 27.4065 17.7047 28.0126 19.9912 28.0127C22.2311 28.0127 24.1448 27.4183 25.7314 26.2285V26.1934C26.0114 25.9834 26.2805 25.7735 26.5371 25.5635C26.8171 25.3068 26.9688 24.9914 26.9922 24.6182C27.0155 24.2215 26.8983 23.8826 26.6416 23.6025C26.3851 23.2995 26.0703 23.1367 25.6973 23.1133Z" fill="url(#paint3_linear_7_162)"/>
<path d="M21.0488 7.00977C22.0793 7.02891 23.0269 7.07671 23.8916 7.15332C25.0445 7.25546 26.0501 7.40801 26.9082 7.6123C27.1387 7.66773 27.3626 7.72861 27.5801 7.79297C28.1241 7.95394 28.6277 8.14254 29.0908 8.35938C29.1835 8.40276 29.2748 8.44657 29.3643 8.49219C29.543 8.58336 29.7151 8.67919 29.8809 8.7793C30.1296 8.92952 30.3634 9.0904 30.583 9.26074C30.6563 9.31756 30.7278 9.37551 30.7979 9.43457C30.9377 9.55257 31.0713 9.67482 31.1982 9.80176C31.3909 9.99438 31.5734 10.2009 31.7451 10.4219C31.974 10.7164 32.1843 11.036 32.376 11.3809C32.4239 11.4671 32.47 11.5552 32.5156 11.6445C32.6069 11.8234 32.6934 12.0087 32.7754 12.2002C32.9392 12.5829 33.0843 12.9908 33.2109 13.4238C33.2742 13.6402 33.3337 13.8628 33.3877 14.0918C33.4781 14.4711 33.5581 14.8797 33.6289 15.3174C33.8413 16.6308 33.965 18.2071 34 20.0459V20.5713C33.9533 23.0225 33.7495 25.0069 33.3877 26.5244C32.9558 28.3689 32.2256 29.7998 31.1982 30.8154C30.1826 31.8426 28.7525 32.572 26.9082 33.0039C25.1921 33.4125 22.8864 33.6172 19.9912 33.6172C17.0844 33.6172 14.7786 33.4125 13.0742 33.0039C11.2416 32.572 9.81145 31.8426 8.78418 30.8154C7.76853 29.7998 7.03932 28.3689 6.5957 26.5244C6.23385 24.9835 6.03502 22.9698 6 20.4834V20.1328C6.03504 17.6464 6.23383 15.6327 6.5957 14.0918C7.03932 12.2591 7.76859 10.829 8.78418 9.80176C9.81149 8.78612 11.2414 8.05592 13.0742 7.6123C14.7786 7.20372 17.0844 7.00001 19.9912 7L21.0488 7.00977ZM25.6973 23.1133C25.3006 23.0899 24.9617 23.2062 24.6816 23.4629C24.495 23.6262 24.2969 23.7898 24.0869 23.9531H24.0518C22.9317 24.7931 21.5779 25.2129 19.9912 25.2129C18.358 25.2128 16.9695 24.7931 15.8262 23.9531C15.6862 23.8365 15.5581 23.7192 15.4414 23.6025C15.1848 23.2993 14.8694 23.1366 14.4961 23.1133C14.0995 23.09 13.7614 23.2063 13.4814 23.4629C13.1781 23.7196 13.0145 24.0467 12.9912 24.4434C12.968 24.8165 13.0844 25.1548 13.3408 25.458C13.5508 25.6914 13.808 25.9249 14.1113 26.1582C14.1346 26.1582 14.1465 26.17 14.1465 26.1934C15.7564 27.4065 17.7047 28.0126 19.9912 28.0127C22.2311 28.0127 24.1448 27.4183 25.7314 26.2285V26.1934C26.0114 25.9834 26.2805 25.7735 26.5371 25.5635C26.8171 25.3068 26.9688 24.9914 26.9922 24.6182C27.0155 24.2215 26.8983 23.8826 26.6416 23.6025C26.3851 23.2995 26.0703 23.1367 25.6973 23.1133Z" fill="url(#paint4_linear_7_162)"/>
<path d="M21.0488 7.00977C22.0793 7.02891 23.0269 7.07671 23.8916 7.15332C25.0445 7.25546 26.0501 7.40801 26.9082 7.6123C27.1387 7.66773 27.3626 7.72861 27.5801 7.79297C28.1241 7.95394 28.6277 8.14254 29.0908 8.35938C29.1835 8.40276 29.2748 8.44657 29.3643 8.49219C29.543 8.58336 29.7151 8.67919 29.8809 8.7793C30.1296 8.92952 30.3634 9.0904 30.583 9.26074C30.6563 9.31756 30.7278 9.37551 30.7979 9.43457C30.9377 9.55257 31.0713 9.67482 31.1982 9.80176C31.3909 9.99438 31.5734 10.2009 31.7451 10.4219C31.974 10.7164 32.1843 11.036 32.376 11.3809C32.4239 11.4671 32.47 11.5552 32.5156 11.6445C32.6069 11.8234 32.6934 12.0087 32.7754 12.2002C32.9392 12.5829 33.0843 12.9908 33.2109 13.4238C33.2742 13.6402 33.3337 13.8628 33.3877 14.0918C33.4781 14.4711 33.5581 14.8797 33.6289 15.3174C33.8413 16.6308 33.965 18.2071 34 20.0459V20.5713C33.9533 23.0225 33.7495 25.0069 33.3877 26.5244C32.9558 28.3689 32.2256 29.7998 31.1982 30.8154C30.1826 31.8426 28.7525 32.572 26.9082 33.0039C25.1921 33.4125 22.8864 33.6172 19.9912 33.6172C17.0844 33.6172 14.7786 33.4125 13.0742 33.0039C11.2416 32.572 9.81145 31.8426 8.78418 30.8154C7.76853 29.7998 7.03932 28.3689 6.5957 26.5244C6.23385 24.9835 6.03502 22.9698 6 20.4834V20.1328C6.03504 17.6464 6.23383 15.6327 6.5957 14.0918C7.03932 12.2591 7.76859 10.829 8.78418 9.80176C9.81149 8.78612 11.2414 8.05592 13.0742 7.6123C14.7786 7.20372 17.0844 7.00001 19.9912 7L21.0488 7.00977ZM25.6973 23.1133C25.3006 23.0899 24.9617 23.2062 24.6816 23.4629C24.495 23.6262 24.2969 23.7898 24.0869 23.9531H24.0518C22.9317 24.7931 21.5779 25.2129 19.9912 25.2129C18.358 25.2128 16.9695 24.7931 15.8262 23.9531C15.6862 23.8365 15.5581 23.7192 15.4414 23.6025C15.1848 23.2993 14.8694 23.1366 14.4961 23.1133C14.0995 23.09 13.7614 23.2063 13.4814 23.4629C13.1781 23.7196 13.0145 24.0467 12.9912 24.4434C12.968 24.8165 13.0844 25.1548 13.3408 25.458C13.5508 25.6914 13.808 25.9249 14.1113 26.1582C14.1346 26.1582 14.1465 26.17 14.1465 26.1934C15.7564 27.4065 17.7047 28.0126 19.9912 28.0127C22.2311 28.0127 24.1448 27.4183 25.7314 26.2285V26.1934C26.0114 25.9834 26.2805 25.7735 26.5371 25.5635C26.8171 25.3068 26.9688 24.9914 26.9922 24.6182C27.0155 24.2215 26.8983 23.8826 26.6416 23.6025C26.3851 23.2995 26.0703 23.1367 25.6973 23.1133Z" fill="url(#paint5_linear_7_162)"/>
</g>
<defs>
<linearGradient id="paint0_linear_7_162" x1="20" y1="0" x2="20" y2="40" gradientUnits="userSpaceOnUse">
<stop stop-color="#313131"/>
<stop offset="1" stop-color="#141414"/>
</linearGradient>
<linearGradient id="paint1_linear_7_162" x1="20" y1="0" x2="20" y2="40" gradientUnits="userSpaceOnUse">
<stop stop-color="#292929"/>
<stop offset="1" stop-color="#0C0C0C"/>
</linearGradient>
<linearGradient id="paint2_linear_7_162" x1="20" y1="0" x2="20" y2="40" gradientUnits="userSpaceOnUse">
<stop stop-color="#313131"/>
<stop offset="1" stop-color="#141414"/>
</linearGradient>
<linearGradient id="paint3_linear_7_162" x1="20" y1="7" x2="20" y2="33.6172" gradientUnits="userSpaceOnUse">
<stop stop-color="#AFAFB0"/>
<stop offset="1" stop-color="#7F7F7F"/>
</linearGradient>
<linearGradient id="paint4_linear_7_162" x1="20" y1="7" x2="20" y2="31.3991" gradientUnits="userSpaceOnUse">
<stop stop-color="#A4A4A4"/>
<stop offset="1" stop-color="#4F4F4F"/>
</linearGradient>
<linearGradient id="paint5_linear_7_162" x1="20" y1="7" x2="20" y2="31.3991" gradientUnits="userSpaceOnUse">
<stop stop-color="#BABABA"/>
<stop offset="1" stop-color="#666666"/>
</linearGradient>
<clipPath id="clip0_7_162">
<rect width="40" height="40" fill="white"/>
</clipPath>
</defs>
</svg>
