<svg width="40" height="40" viewBox="0 0 40 40" fill="none" xmlns="http://www.w3.org/2000/svg">
<rect width="40" height="40" fill="#F4AF46"/>
<g clip-path="url(#clip0_7_176)">
<path d="M17.3595 33.1722C13.886 32.8423 11.0251 31.9739 8.91136 30.6074C8.25839 30.1901 8.06991 30.0352 7.43714 29.4025C6.54857 28.5206 6.07063 27.6186 5.72059 26.205C5.59269 25.6665 5.61288 23.5123 5.75425 22.7719C6.07736 21.0755 6.36682 20.1466 6.94574 18.9012L7.16115 18.43L6.939 17.5549C6.69667 16.5923 6.65628 16.3971 6.50145 15.3739C6.37355 14.4853 6.36682 12.3312 6.49472 11.4965C6.87842 8.97213 7.65255 8.16434 9.32872 8.53458C10.8501 8.87115 12.7214 9.80684 14.2091 10.9849C14.5255 11.2339 14.8217 11.4561 14.8621 11.483C14.9092 11.5167 15.1717 11.4763 15.4343 11.4022C16.8816 10.9983 17.797 10.8906 19.729 10.8974C21.4456 10.8974 21.8966 10.9445 23.0275 11.2137L23.3977 11.3013L24.1382 10.6348C25.7807 9.16061 28.13 7.84795 29.3619 7.71332C30.6948 7.57196 31.4487 8.74999 31.8863 11.6648C32.068 12.8563 32.0478 15.044 31.8459 16.2759C31.7651 16.7942 31.6843 17.326 31.6641 17.4539C31.6372 17.6491 31.6978 17.7972 32.0209 18.329C32.445 19.0291 32.9364 20.0456 33.2258 20.8197C33.8923 22.5901 34.1481 24.5355 33.899 25.8415C33.6163 27.309 33.0441 28.3187 31.8728 29.4361C31.2804 29.9949 30.1562 30.769 29.3148 31.2065C28.8705 31.4354 27.605 31.947 26.9655 32.1624C24.219 33.0779 20.4964 33.4684 17.3595 33.1722ZM21.6475 32.4586C23.4987 32.3105 25.5586 31.8864 27.0328 31.3546C29.9139 30.318 31.8728 28.8168 32.721 26.9993C33.448 25.4376 33.4345 24.0845 32.6738 21.6275C32.3373 20.5437 31.4554 18.807 30.6611 17.6626C30.2707 17.1039 30.2235 17.0029 30.2437 16.7538L30.2639 16.4778H30.6813H31.0919L31.1323 16.2422C31.1525 16.1143 31.1996 15.5422 31.2467 14.97C31.4285 12.5197 30.9304 9.7328 30.136 8.79038C29.7658 8.34609 29.4831 8.35282 28.3791 8.81057C27.3088 9.26159 26.023 10.103 24.6161 11.2811L24.4748 11.3955L24.6296 11.5167C24.7642 11.6176 24.7844 11.6917 24.7642 11.9744C24.744 12.2908 24.7373 12.3043 24.5354 12.3245C24.4142 12.3379 23.9766 12.2504 23.5593 12.136C21.7216 11.6378 20.4224 11.483 18.9078 11.5907C17.3999 11.6984 16.0603 11.961 14.8015 12.4052C14.1755 12.6206 13.8187 12.661 13.6841 12.5264C13.5562 12.3985 13.5898 11.9946 13.7312 11.8398C13.8658 11.6984 13.8658 11.6984 13.2802 11.2878C11.8194 10.2713 10.2173 9.50392 8.96521 9.23466C8.13049 9.05964 7.67275 9.5847 7.3429 11.1262C6.99959 12.7284 7.03998 14.3978 7.48426 16.5452L7.62563 17.2183L7.98913 17.1981L8.35264 17.1712V17.4943C8.35264 17.7703 8.26513 17.9992 7.84777 18.8339C7.26212 20.0187 6.79764 21.3515 6.5553 22.5565C6.41394 23.27 6.38028 23.6066 6.38028 24.5894C6.37355 25.6328 6.39375 25.828 6.52838 26.306C6.75725 27.0868 6.94574 27.484 7.43714 28.1908C7.87469 28.8168 8.14396 29.0726 9.07965 29.7862C10.2913 30.7017 12.5262 31.6104 14.5794 32.0211C17.2518 32.5529 19.0962 32.6673 21.6475 32.4586Z" fill="#24180F"/>
<path d="M19.3185 29.3352C19.1434 29.2477 18.9213 29.0726 18.8203 28.9515C18.6049 28.6957 18.2683 28.0158 18.2077 27.7196C18.1808 27.5513 18.1135 27.4974 17.824 27.383C17.3932 27.2147 17.1711 26.9185 17.1711 26.5012C17.1711 26.2656 17.2047 26.1848 17.3394 26.0973C17.6019 25.9223 18.0193 26.003 18.2414 26.279C18.4703 26.5483 18.5847 26.5281 19.2781 26.0703C19.7291 25.7809 19.7964 25.7136 19.7964 25.5386C19.7964 25.3703 19.7493 25.3164 19.4935 25.1952C19.029 24.9731 18.854 24.6971 18.854 24.2057C18.854 23.7412 18.928 23.6402 19.3858 23.4787C19.7762 23.3441 20.7523 23.3441 21.1629 23.4854C21.5533 23.6201 21.6812 23.7883 21.6812 24.172C21.6812 24.6298 21.5331 24.8991 21.1427 25.1414C20.86 25.3164 20.8061 25.3837 20.8196 25.5251C20.8331 25.6597 20.9475 25.754 21.3783 25.9828C22.1255 26.38 22.1525 26.38 22.6506 25.7944C22.7852 25.6328 23.243 25.6193 23.3911 25.7742C23.5661 25.9492 23.5324 26.454 23.317 26.7637C23.142 27.0128 22.7381 27.282 22.5294 27.282C22.4621 27.282 22.4083 27.4099 22.3544 27.6725C22.2804 28.0427 21.9168 28.8034 21.6947 29.0592C21.486 29.288 20.9677 29.5035 20.6109 29.5035C20.409 29.5035 20.2676 29.4698 20.2474 29.4227C20.2205 29.3554 20.2003 29.3554 20.1262 29.4227C19.9916 29.5506 19.6618 29.5169 19.3185 29.3352ZM20.4898 28.487C20.6917 28.3793 21.0754 28.0158 21.0754 27.9215C21.0754 27.7734 19.9983 27.3493 19.6348 27.3493C19.2848 27.3493 19.2242 27.4301 19.3588 27.6927C19.5541 28.0764 19.7358 28.2985 19.958 28.4331C20.2003 28.5812 20.2878 28.588 20.4898 28.487Z" fill="#24180F"/>
<path d="M14.2563 24.3202C13.8928 24.226 13.3947 23.9567 13.186 23.7346C13.085 23.6336 12.9234 23.3643 12.8157 23.1422C12.6475 22.7854 12.6273 22.6643 12.6273 22.0651C12.6273 21.4862 12.6542 21.3449 12.8023 21.0218C13.2196 20.1332 14.1284 19.662 15.2189 19.7697C15.9998 19.8505 16.7066 20.3082 17.0499 20.9679C17.2519 21.3651 17.3057 22.469 17.1374 22.9672C16.9893 23.4115 16.545 23.9029 16.0671 24.1452C15.7574 24.3068 15.5824 24.3404 15.0977 24.3606C14.7746 24.3741 14.3977 24.3539 14.2563 24.3202ZM14.5592 23.0614C14.6737 22.9604 14.6737 22.947 14.5727 22.8258C14.4313 22.6777 14.3842 22.6777 14.2428 22.8124C14.1419 22.9133 14.1419 22.9335 14.2496 23.048C14.3909 23.2028 14.4044 23.2028 14.5592 23.0614ZM15.8853 21.8497C16.2017 21.5535 16.2085 21.392 15.9392 21.1227C15.8113 20.9948 15.6363 20.8871 15.5555 20.8871C15.3872 20.8871 14.9497 21.291 14.9497 21.4526C14.9497 21.6276 15.3535 22.0315 15.5286 22.0315C15.6161 22.0315 15.7776 21.9507 15.8853 21.8497Z" fill="#24180F"/>
<path d="M24.0507 23.9499C23.3641 23.7614 22.9467 23.344 22.6842 22.5968C22.5698 22.2737 22.5496 22.0852 22.5698 21.5938C22.6169 20.6312 22.9737 20.0455 23.7545 19.6618C24.1719 19.4532 24.2459 19.4397 24.8787 19.4397C25.4576 19.4464 25.6057 19.4666 25.9221 19.6147C26.4202 19.8436 26.7433 20.1398 27.0126 20.6043C27.2145 20.9543 27.2347 21.0485 27.2549 21.6611C27.2886 22.5564 27.1472 22.9469 26.6289 23.4383C26.427 23.6335 26.1442 23.8354 26.0096 23.896C25.6461 24.0508 24.5152 24.0778 24.0507 23.9499ZM25.6865 22.5699C25.6865 22.4487 25.6461 22.3949 25.5317 22.3814C25.3701 22.3545 25.2759 22.5026 25.3432 22.6776C25.3634 22.7382 25.4441 22.7718 25.5317 22.7584C25.6461 22.7449 25.6865 22.6911 25.6865 22.5699ZM24.5017 21.5871C24.8181 21.3245 24.8787 21.1764 24.7441 20.9812C24.596 20.7591 24.2594 20.5571 24.0978 20.5975C23.9228 20.6447 23.6333 21.0014 23.6333 21.1697C23.6333 21.3245 24.044 21.7621 24.1921 21.7621C24.2527 21.7621 24.3873 21.6813 24.5017 21.5871Z" fill="#24180F"/>
<path d="M11.5502 13.0583C11.18 12.6678 10.3049 12.0081 9.80672 11.7523C9.69228 11.6917 9.38936 11.5773 9.12683 11.4965C8.66235 11.3552 8.65562 11.3484 8.63542 11.0994C8.60177 10.7157 8.70947 10.6349 9.19414 10.6753C9.9952 10.7493 10.9982 11.3013 12.0551 12.2639L12.6003 12.7621L12.5801 13.1054L12.5599 13.4487L12.257 13.4689C11.9608 13.4823 11.9406 13.4689 11.5502 13.0583Z" fill="#24180F"/>
<path d="M25.8346 12.964C25.8077 12.9438 25.7875 12.8024 25.7875 12.6543C25.7875 12.4322 25.8481 12.311 26.151 11.9408C26.7299 11.2407 27.4569 10.6349 28.2108 10.2377C28.5878 10.0425 28.6349 10.0358 28.6888 10.1367C28.7628 10.2646 28.9581 10.2175 28.9042 10.0762C28.8638 9.96172 29.1196 9.94825 29.3821 10.0492C29.5302 10.1031 29.5572 10.1569 29.5572 10.3791C29.5572 10.7022 29.4091 10.857 29.2139 10.7358C29.1061 10.6685 29.0658 10.6753 28.9648 10.7897C28.9042 10.8705 28.6551 11.0388 28.4195 11.1734C27.9685 11.4225 27.1338 12.1831 26.7299 12.7015C26.5145 12.9842 26.4741 13.0044 26.1846 13.0111C26.0163 13.0111 25.8548 12.9909 25.8346 12.964ZM29.059 10.5137C29.0792 10.4733 29.0725 10.4127 29.0456 10.3858C28.9648 10.305 28.7898 10.4195 28.8436 10.5137C28.9042 10.6079 28.9984 10.6079 29.059 10.5137Z" fill="#24180F"/>
<path d="M8.79689 16.1211C8.72957 16.0066 8.48723 14.9834 8.41992 14.5257C8.33241 13.8929 8.33241 12.4456 8.42665 11.8465C8.52762 11.1801 8.7363 10.8031 8.84401 11.0859C8.8642 11.133 9.02576 11.2138 9.20751 11.2542C9.96145 11.4426 11.0654 12.136 11.7521 12.8563C11.9809 13.0919 12.1963 13.2804 12.2435 13.2804C12.3848 13.2804 12.331 13.4823 12.1425 13.6641C12.0348 13.7583 11.779 13.9535 11.5636 14.1016C11.3482 14.2497 10.9645 14.5661 10.7154 14.8017C10.4596 15.0373 10.2038 15.2325 10.1432 15.2325C10.0826 15.2325 10.0086 15.2998 9.97491 15.3873C9.94126 15.4681 9.7595 15.6768 9.57102 15.8586C9.32195 16.0874 9.17385 16.1749 9.03249 16.1749C8.91805 16.1749 8.81708 16.148 8.79689 16.1211Z" fill="#AA774D"/>
<path d="M13.1792 24.8115C12.9099 24.7913 12.8493 24.7577 12.7955 24.6163C12.7484 24.4952 12.5868 24.3807 12.2233 24.2124C11.8127 24.0239 11.6175 23.9768 11.0991 23.9432C10.7491 23.9162 10.0827 23.8018 9.59798 23.6739C8.50747 23.4046 7.55831 23.2902 6.79091 23.3508C6.09083 23.4046 6.13122 23.4989 6.36682 22.3209C6.5957 21.163 7.06018 19.8167 7.64582 18.6319C7.92182 18.08 8.15069 17.5684 8.15069 17.501C8.15069 17.3328 7.94874 17.3597 7.73333 17.5684C7.63236 17.6626 7.53139 17.7366 7.51792 17.7165C7.45734 17.6491 7.14095 16.0807 7.04671 15.3671C6.88515 14.1218 6.85823 13.3073 6.93901 12.3716C7.11403 10.3656 7.53812 9.25485 8.19781 9.03271C9.09311 8.73652 11.4694 9.67221 13.536 11.133C14.3774 11.7186 14.4111 11.759 14.1553 11.8936C13.8523 12.0485 13.7648 12.1898 13.886 12.311C13.9735 12.3985 14.0543 12.3918 14.5861 12.2033C15.892 11.7523 17.2047 11.4965 18.8135 11.3888C20.4964 11.2743 21.8764 11.4224 23.7276 11.9273C24.1315 12.035 24.4882 12.1158 24.5219 12.0956C24.6633 12.0081 24.5623 11.7927 24.3065 11.6513C24.1584 11.5638 24.0372 11.4763 24.0372 11.4561C24.0372 11.308 25.6797 10.0223 26.5683 9.47026C28.3252 8.37975 29.5437 8.00951 30.1024 8.38648C31.0381 9.01252 31.6641 12.109 31.4487 15.0709C31.4083 15.697 31.3343 16.3971 31.2939 16.6259L31.2198 17.0433L30.9842 16.8413C30.7553 16.6394 30.4995 16.599 30.4524 16.7538C30.439 16.801 30.6207 17.1173 30.8631 17.4607C31.3545 18.1675 32.0074 19.332 32.4248 20.2475C32.6738 20.7928 32.8489 21.3044 33.1518 22.3545L33.2528 22.7046H32.7008C31.691 22.7046 29.8264 23.1017 29.0994 23.472C28.9984 23.5191 28.7359 23.5797 28.5137 23.6066C28.0762 23.6537 27.5511 23.8826 27.2684 24.1451C26.9991 24.4076 26.5885 24.4817 25.4509 24.4817L24.4075 24.4884L24.0305 24.273C23.8218 24.1518 23.4448 23.896 23.189 23.7076C22.6438 23.3037 22.1524 23.0479 21.5465 22.8527C20.0252 22.3545 18.6587 22.6709 17.2383 23.8557C16.9219 24.1115 16.4373 24.4413 16.168 24.5759L15.6631 24.825L14.5861 24.8317C13.987 24.8385 13.3542 24.825 13.1792 24.8115ZM15.8785 23.9364C16.343 23.7008 16.794 23.2027 16.9421 22.7584C17.0835 22.3343 17.0431 21.5669 16.8681 21.2236C16.4103 20.335 15.4545 19.8369 14.5457 20.0187C13.1859 20.2879 12.4454 21.7083 13.0176 22.9402C13.2465 23.4316 13.4686 23.6739 13.886 23.8893C14.5659 24.2326 15.2592 24.2528 15.8785 23.9364ZM25.8076 23.6874C26.225 23.5191 26.777 22.9402 26.9385 22.5093C27.4501 21.1496 26.3865 19.6619 24.8787 19.6484C23.4448 19.635 22.4082 21.0553 22.8861 22.3949C23.1487 23.1421 23.566 23.5527 24.2526 23.748C24.6835 23.8691 25.4509 23.8422 25.8076 23.6874ZM17.2181 19.6619C17.4739 19.4263 17.4739 19.2916 17.2181 18.9147C16.8142 18.2954 16.1545 18.0934 15.7506 18.4502C15.5689 18.6118 15.5487 18.6723 15.5824 18.8406C15.6295 19.0628 16.1411 19.6013 16.4642 19.7763C16.7133 19.9042 17.0095 19.8638 17.2181 19.6619ZM23.4583 19.4667C24.2122 18.9618 24.32 18.3088 23.6872 18.0665C23.3035 17.9251 22.2197 18.7195 22.2197 19.1368C22.2197 19.2041 22.3139 19.3522 22.4284 19.4667C22.7111 19.7494 23.0275 19.7494 23.4583 19.4667ZM9.73261 15.246C9.67876 15.1921 9.84032 15.0306 9.95476 15.0306C10.0086 15.0306 10.2577 14.8353 10.5135 14.5997C10.7625 14.3641 11.1462 14.0477 11.3617 13.8996C11.5771 13.7516 11.8329 13.5563 11.9338 13.4621C12.0348 13.3679 12.1694 13.2803 12.2368 13.2669C12.3041 13.2534 12.3647 13.1794 12.3781 13.1053C12.4185 12.8024 10.6683 11.4224 9.81339 11.0858C9.24121 10.857 8.99887 10.8233 8.8979 10.9512C8.85078 11.0051 8.83058 11.0858 8.85751 11.1195C8.8777 11.1599 8.85078 11.2743 8.80366 11.3753C8.57478 11.8129 8.48727 13.3409 8.6219 14.3237C8.68922 14.7748 8.93156 15.8047 8.99887 15.9191C9.01907 15.946 9.19409 15.8114 9.39604 15.6229C9.59798 15.4344 9.75281 15.2594 9.73261 15.246Z" fill="#E4B163"/>
<path d="M19.7492 28.6284C19.4934 28.4736 19.2309 28.1034 19.0492 27.6254L18.9213 27.2821L19.0963 27.2148C19.3723 27.1071 20.0118 27.134 20.4089 27.2754C20.9071 27.4437 21.3446 27.6725 21.385 27.787C21.4591 27.9755 21.0619 28.5005 20.6917 28.689C20.4628 28.8034 19.9916 28.7765 19.7492 28.6284Z" fill="#EBA494"/>
<path d="M12.2233 24.246C12.0011 24.1383 11.7184 24.0306 11.604 24.0104C11.4492 23.9835 11.3818 23.9297 11.3818 23.8421C11.3818 23.7344 11.4222 23.721 11.6444 23.7412C11.9473 23.7681 12.9503 24.2393 12.984 24.3739C13.0243 24.5153 12.6541 24.4547 12.2233 24.246Z" fill="#EBA494"/>
<path d="M27.605 23.6605C27.605 23.5864 27.9618 23.3845 28.1166 23.3778C28.1839 23.3778 28.3522 23.371 28.4801 23.3576C28.6416 23.3508 28.7224 23.3778 28.7359 23.4451C28.7493 23.5259 28.6416 23.5662 28.3185 23.6336C27.8069 23.7278 27.605 23.7345 27.605 23.6605Z" fill="#EBA494"/>
<path d="M27.0359 12.5865C27.3811 12.2493 28.1971 11.6796 28.6616 11.4587C28.7683 11.4063 29.0508 11.3075 29.2956 11.2377C29.7287 11.1157 29.735 11.1098 29.7538 10.8947C29.7852 10.5634 29.6848 10.4936 29.2328 10.5285C28.4859 10.5924 27.5506 11.0691 26.5652 11.9005L26.0567 12.3307L26.0756 12.6272L26.0944 12.9237L26.3768 12.9411C26.653 12.9527 26.6719 12.9411 27.0359 12.5865Z" fill="#24180F"/>
<path d="M29.5908 15.5718C29.6581 15.4573 29.9005 14.4341 29.9678 13.9764C30.0553 13.3436 30.0553 11.8963 29.961 11.2972C29.8601 10.6308 29.6514 10.2538 29.5437 10.5365C29.5235 10.5837 29.3619 10.6644 29.1802 10.7048C28.4262 10.8933 27.3223 11.5867 26.6356 12.307C26.4068 12.5426 26.1914 12.731 26.1442 12.731C26.0029 12.731 26.0567 12.933 26.2452 13.1147C26.3529 13.209 26.6087 13.4042 26.8241 13.5523C27.0395 13.7004 27.4232 14.0168 27.6723 14.2524C27.9281 14.488 28.1839 14.6832 28.2445 14.6832C28.3051 14.6832 28.3791 14.7505 28.4128 14.838C28.4464 14.9188 28.6282 15.1275 28.8167 15.3092C29.0657 15.5381 29.2138 15.6256 29.3552 15.6256C29.4696 15.6256 29.5706 15.5987 29.5908 15.5718Z" fill="#AA774D"/>
<path d="M20.7792 27.511C20.6311 27.3629 20.6445 27.3293 20.8263 27.4235C21.0215 27.5312 21.0282 27.5312 20.9474 27.5783C20.9138 27.5985 20.833 27.5716 20.7792 27.511Z" fill="#EEB1A5"/>
<path d="M11.079 25.8415C10.6751 25.7136 10.4327 25.5655 10.1702 25.303C9.96824 25.0876 9.93459 25.0068 9.91439 24.6298C9.88747 24.1788 9.99517 23.8422 10.224 23.7211C10.3789 23.6403 11.6713 23.7413 12.0281 23.8692C12.5195 24.0509 12.984 24.3134 13.0109 24.4346C13.0244 24.5087 13.0917 24.5558 13.1994 24.5558C13.361 24.5558 13.3677 24.576 13.3879 24.9799C13.4215 25.7473 13.1523 25.9358 12.0416 25.929C11.6579 25.929 11.2271 25.8886 11.079 25.8415Z" fill="#EEB1A5"/>
<path d="M27.1001 25.5387C27.0261 25.505 26.8847 25.404 26.7838 25.3098C26.6155 25.1482 26.5953 25.0876 26.5953 24.6636C26.5953 24.2193 26.6087 24.1856 26.7568 24.1452C26.8443 24.125 26.9857 24.0308 27.0732 23.9433C27.2752 23.7279 27.8541 23.4653 28.258 23.4048C28.7561 23.3374 28.7965 23.324 28.9379 23.2499C29.1196 23.1557 29.6851 23.324 29.887 23.5394C30.2034 23.876 30.1563 24.5828 29.786 24.9934C29.4225 25.3973 28.7898 25.5992 27.9214 25.5925C27.5444 25.5925 27.1742 25.5656 27.1001 25.5387Z" fill="#EEB1A5"/>
<path d="M18.1471 32.7279C16.5046 32.6471 14.1418 32.2499 12.7955 31.8258C10.1298 30.9911 8.23824 29.8198 7.23524 28.3927C6.75056 27.6859 6.55535 27.2887 6.32648 26.5079C6.18511 26.0232 6.17165 25.8347 6.16492 24.6096C6.16492 23.8624 6.19184 23.2296 6.21877 23.1959C6.30628 23.1152 8.25844 23.1421 8.75658 23.2363C8.99891 23.2835 9.5509 23.4114 9.99519 23.5258L10.7962 23.7345L10.5472 23.8624C10.0356 24.1249 9.97499 24.6836 10.4125 25.1346C10.7693 25.4981 11.2338 25.6799 11.8935 25.7203C12.5263 25.7539 12.8696 25.6664 13.0648 25.4174C13.2062 25.2289 13.2465 24.8048 13.1388 24.5961C13.0783 24.4817 13.0917 24.4817 13.4216 24.5692C13.6639 24.6365 14.0341 24.6567 14.6198 24.6432C15.441 24.6163 15.4882 24.6096 15.9661 24.374C16.2421 24.2326 16.72 23.9095 17.0364 23.6537C18.4972 22.4353 20.0724 22.0987 21.7485 22.6507C22.3544 22.8459 22.8458 23.1017 23.391 23.5056C23.6468 23.6941 24.0238 23.9499 24.2325 24.0711C24.6095 24.2865 24.6162 24.2865 25.4846 24.2797C26.0635 24.273 26.4674 24.2326 26.6828 24.1653C27.0194 24.0576 27.053 24.0778 26.8982 24.2797C26.7299 24.5019 26.7703 24.9058 26.9857 25.1077C27.2415 25.3433 27.4098 25.3972 27.9416 25.3972C28.2782 25.3972 28.5407 25.3501 28.8638 25.2289C30.1024 24.7577 30.2303 23.721 29.0792 23.445C28.7292 23.3575 28.7292 23.3575 28.9042 23.27C29.2812 23.068 30.3717 22.7584 31.1391 22.6372C32.1017 22.4757 33.1586 22.4555 33.2124 22.5968C33.2326 22.644 33.2999 22.994 33.3605 23.3777C33.5019 24.2057 33.4682 25.6059 33.2932 26.2386C32.7547 28.184 31.1526 29.8198 28.6753 30.9575C26.8713 31.7787 25.599 32.1422 23.2227 32.499C22.2736 32.6404 19.9849 32.8154 19.3925 32.7885C19.2646 32.7885 18.7059 32.7548 18.1471 32.7279ZM21.0619 29.1399C21.2369 29.0524 21.4254 28.9245 21.4927 28.8572C21.7149 28.6014 22.0784 27.8407 22.1524 27.4705C22.2063 27.208 22.2601 27.0801 22.3274 27.0801C22.7179 27.0801 23.3506 26.4271 23.2699 26.1107C23.1958 25.8011 22.8862 25.8213 22.7179 26.1511C22.5832 26.4069 22.2332 26.5752 21.9437 26.5146C21.8158 26.4944 21.4725 26.3396 21.1763 26.1848L20.6378 25.8953L20.6176 25.5251L20.5974 25.1616L20.9542 24.926C21.2302 24.7442 21.3312 24.623 21.4052 24.4144C21.4927 24.1653 21.4927 24.1114 21.3918 23.9633C21.0888 23.4989 19.6617 23.4517 19.1771 23.896C18.8809 24.1586 19.1501 24.7307 19.6887 24.9865C19.9849 25.1346 19.9849 25.1414 20.0118 25.5116L20.032 25.8886L19.7291 26.1175C19.5608 26.2386 19.2444 26.4338 19.0222 26.5415C18.5376 26.7839 18.2481 26.7637 18.0327 26.4675C17.8577 26.2319 17.6827 26.1848 17.4942 26.3329C17.3595 26.4473 17.3595 26.4742 17.4403 26.6694C17.548 26.932 17.7836 27.1205 18.1135 27.2214C18.3222 27.2887 18.376 27.3359 18.4097 27.5109C18.4702 27.8138 18.8001 28.487 19.0222 28.7495C19.48 29.2948 20.4022 29.4765 21.0619 29.1399Z" fill="#F9F6EF"/>
<path d="M14.1149 23.3038C13.7851 23.0413 13.9668 22.4354 14.3842 22.4354C14.6332 22.4354 14.8823 22.6845 14.8823 22.9403C14.8823 23.1826 14.64 23.4452 14.4111 23.4452C14.3438 23.4452 14.2159 23.3846 14.1149 23.3038Z" fill="#F9F6EF"/>
<path d="M25.1816 22.9066C25.1076 22.8325 25.047 22.6844 25.047 22.57C25.047 22.4555 25.1076 22.3074 25.1816 22.2334C25.4711 21.9439 25.9894 22.1594 25.9894 22.57C25.9894 22.8258 25.774 23.0412 25.5182 23.0412C25.4038 23.0412 25.2557 22.9806 25.1816 22.9066Z" fill="#F9F6EF"/>
<path d="M15.3064 22.2535C15.2256 22.24 15.064 22.1188 14.9496 21.9909C14.5592 21.5399 14.7476 20.8735 15.3198 20.685C15.9795 20.4696 16.5988 21.2033 16.2757 21.8226C16.1142 22.1457 15.6833 22.3342 15.3064 22.2535Z" fill="#F9F6EF"/>
<path d="M23.7075 21.789C23.3036 21.4524 23.2834 20.9139 23.6671 20.5504C24.1517 20.0994 25.047 20.4965 25.047 21.1764C25.047 21.3918 24.9999 21.4861 24.7845 21.7015C24.5556 21.9304 24.4816 21.964 24.2191 21.964C23.9902 21.964 23.8623 21.9236 23.7075 21.789Z" fill="#F9F6EF"/>
<path d="M16.2556 19.9783C16.1411 19.9177 15.9055 19.7225 15.7238 19.5407C15.4276 19.2378 15.3939 19.1772 15.367 18.8339C15.3401 18.5108 15.3603 18.4368 15.4882 18.2954C15.717 18.0463 16.0334 17.9655 16.4238 18.053C16.8951 18.154 17.198 18.356 17.4336 18.7262C17.7096 19.157 17.7163 19.5205 17.447 19.8235C17.2855 20.0052 17.2047 20.0389 16.8614 20.0591C16.5921 20.0793 16.3969 20.0523 16.2556 19.9783Z" fill="#F9F6EF"/>
<path d="M22.59 19.8974C22.3544 19.8301 22.1659 19.6685 22.0514 19.4396C21.8293 18.9617 22.1793 18.3693 22.9198 17.9991C23.2833 17.8106 23.4112 17.7769 23.6401 17.8106C24.2055 17.8846 24.4613 18.2885 24.3065 18.8607C24.2257 19.1636 23.8488 19.5944 23.5055 19.7762C23.2766 19.8906 22.7986 19.958 22.59 19.8974Z" fill="#F9F6EF"/>
</g>
<defs>
<clipPath id="clip0_7_176">
<rect width="28.34" height="25.58" fill="white" transform="translate(5.66003 7.69312)"/>
</clipPath>
</defs>
</svg>
