<svg width="120" height="25" viewBox="0 0 120 25" fill="none" xmlns="http://www.w3.org/2000/svg">
<g clip-path="url(#clip0_4_53)">
<path fill-rule="evenodd" clip-rule="evenodd" d="M63.4305 15.6449C63.7179 15.8933 64.0983 16.0179 64.5711 16.0179C65.202 16.0179 65.9589 15.8775 66.8416 15.5968V18.3247C65.9427 18.7333 64.8395 18.9376 63.5308 18.9376C62.0884 18.9376 61.0381 18.5669 60.3798 17.8261C59.7215 17.0853 59.3924 15.9737 59.3924 14.4915V8.01459H57.666V6.46442L59.6525 5.23911L60.6928 2.40307H62.9989V5.26288H66.6996V8.01459H62.9989V14.4915C62.9989 15.0121 63.1426 15.397 63.4305 15.6449ZM53.634 18.1085C52.8694 18.6615 51.9705 18.9376 50.938 18.9376C49.3853 18.9376 48.1674 18.3649 47.2847 17.2194H47.0953C47.2212 18.3411 47.2847 18.9897 47.2847 19.1657V24.6092H43.6782V5.26288H46.6103L47.1187 7.00548H47.2847C48.1279 5.67547 49.3776 5.01046 51.0327 5.01046C52.5937 5.01046 53.8155 5.6234 54.6982 6.84927C55.5809 8.07458 56.0226 9.77699 56.0226 11.9559C56.0226 13.3901 55.8154 14.6358 55.4016 15.693C54.9878 16.7508 54.3986 17.5556 53.634 18.1085ZM51.7483 8.93371C51.3501 8.27323 50.7253 7.94271 49.8738 7.94271C48.9833 7.94271 48.3328 8.22116 47.9229 8.7775C47.513 9.33441 47.3003 10.2541 47.2847 11.5354V11.9322C47.2847 13.3742 47.4952 14.4077 47.9173 15.0325C48.3389 15.6573 49.0066 15.9697 49.9211 15.9697C51.5372 15.9697 52.3453 14.616 52.3453 11.9078C52.3453 10.5863 52.1459 9.59475 51.7483 8.93371ZM38.0974 3.59273C36.7887 3.59273 36.1343 2.99167 36.1343 1.79014C36.1343 0.596524 36.7887 0 38.0974 0C39.4056 0 40.0599 0.596524 40.0599 1.79014C40.0599 2.35893 39.8962 2.80151 39.5693 3.11788C39.2419 3.43482 38.7512 3.59273 38.0974 3.59273ZM32.5517 8.4351C31.4006 8.4351 30.504 8.73562 29.8619 9.33667C29.2192 9.93716 28.8979 10.7787 28.8979 11.8597V18.6971H25.2919V5.26288H28.023L28.5554 7.5222H28.7325C29.1424 6.7689 29.6959 6.16219 30.3937 5.7015C31.0915 5.24081 31.85 5.01046 32.6698 5.01046C33.1588 5.01046 33.5642 5.04668 33.8878 5.11856L33.616 8.55565C33.3242 8.47528 32.9694 8.4351 32.5517 8.4351ZM19.9946 8.1889C19.5056 8.04062 19.0167 7.96648 18.5283 7.96648C16.6521 7.96648 15.7142 9.32083 15.7142 12.0284C15.7142 14.6556 16.6521 15.9697 18.5283 15.9697C19.2216 15.9697 19.8643 15.8752 20.4557 15.6873C21.0466 15.4989 21.638 15.2046 22.2295 14.8039V17.9404C21.6458 18.3168 21.0566 18.5771 20.4613 18.7215C19.866 18.8658 19.1153 18.9376 18.2092 18.9376C14.0942 18.9376 12.037 16.6427 12.037 12.0522C12.037 9.76907 12.5967 8.02477 13.716 6.81927C14.8349 5.61378 16.4393 5.01046 18.5283 5.01046C20.0575 5.01046 21.4292 5.31495 22.6433 5.92392L21.579 8.75996C21.0115 8.52735 20.483 8.33718 19.9946 8.1889ZM6.34929 10.5263C7.38179 10.9508 8.13863 11.3475 8.6198 11.716C9.10041 12.0844 9.45516 12.5089 9.68405 12.9894C9.91238 13.4699 10.0265 14.0432 10.0265 14.7077C10.0265 16.0858 9.5554 17.1351 8.61367 17.8561C7.67194 18.5771 6.26241 18.9376 4.38675 18.9376C3.42497 18.9376 2.60521 18.8714 1.92745 18.7396C1.24914 18.6071 0.614825 18.413 0.0233901 18.1566V15.1282C0.693348 15.4491 1.44851 15.7173 2.28777 15.9335C3.12759 16.1497 3.8666 16.2578 4.50482 16.2578C5.81355 16.2578 6.46791 15.8735 6.46791 15.1044C6.46791 14.8157 6.38103 14.5814 6.20728 14.4015C6.03408 14.2209 5.73447 14.0166 5.30899 13.7885C4.88296 13.5604 4.31547 13.2939 3.60597 12.9894C2.58961 12.557 1.84225 12.1563 1.36553 11.7879C0.888266 11.4194 0.54187 10.9966 0.325233 10.5201C0.10804 10.0436 0 9.45666 0 8.75996C0 7.56634 0.454992 6.64269 1.36553 5.99014C2.27608 5.33702 3.56643 5.01046 5.2377 5.01046C6.8299 5.01046 8.37921 5.36305 9.88509 6.06824L8.79689 8.71185C8.13473 8.42321 7.51601 8.1872 6.94072 8.0027C6.36488 7.81876 5.7779 7.72651 5.17867 7.72651C4.11442 7.72651 3.58258 8.01911 3.58258 8.60375C3.58258 8.93201 3.75411 9.21612 4.09716 9.45666C4.43966 9.69719 5.19092 10.0537 6.34929 10.5263ZM39.8945 18.6971H36.288V5.26288H39.8945V18.6971Z" fill="white"/>
<path fill-rule="evenodd" clip-rule="evenodd" d="M111.475 12.8932C111.514 13.9351 111.818 14.7478 112.385 15.3325C112.953 15.9177 113.749 16.2097 114.774 16.2097C115.57 16.2097 116.323 16.126 117.032 15.9573C117.742 15.7892 118.482 15.5209 119.255 15.1525V17.9885C118.624 18.3089 117.95 18.5471 117.233 18.7033C116.516 18.8596 115.64 18.9377 114.608 18.9377C112.48 18.9377 110.816 18.3411 109.619 17.147C108.42 15.9533 107.821 14.2634 107.821 12.0765C107.821 9.8251 108.375 8.08477 109.482 6.85493C110.59 5.62567 112.121 5.01047 114.076 5.01047C115.944 5.01047 117.399 5.55152 118.439 6.63308C119.48 7.71406 120 9.2082 120 11.1149V12.8932H111.475ZM115.92 8.357C115.471 7.86461 114.864 7.61842 114.099 7.61842C113.335 7.61842 112.736 7.86461 112.302 8.357C111.869 8.84995 111.621 9.54891 111.558 10.4539H116.618C116.602 9.54891 116.37 8.84995 115.92 8.357ZM102.134 10.5263C103.166 10.9508 103.923 11.3475 104.404 11.716C104.885 12.0844 105.239 12.5089 105.468 12.9894C105.697 13.4699 105.811 14.0432 105.811 14.7077C105.811 16.0858 105.34 17.1351 104.398 17.8561C103.456 18.5771 102.047 18.9377 100.171 18.9377C99.2089 18.9377 98.3891 18.8714 97.7113 18.7396C97.0336 18.6071 96.3987 18.413 95.8078 18.1566V15.1282C96.4778 15.4491 97.2324 15.7173 98.0722 15.9335C98.9115 16.1497 99.6505 16.2578 100.289 16.2578C101.597 16.2578 102.252 15.8735 102.252 15.1044C102.252 14.8158 102.165 14.5814 101.992 14.4015C101.819 14.2209 101.519 14.0166 101.093 13.7885C100.667 13.5605 100.1 13.2939 99.3904 12.9894C98.3735 12.557 97.6267 12.1563 97.15 11.7879C96.6727 11.4194 96.3258 10.9966 96.1091 10.5201C95.8925 10.0436 95.7839 9.45666 95.7839 8.75996C95.7839 7.56635 96.2394 6.6427 97.15 5.99015C98.06 5.33703 99.3509 5.01047 101.022 5.01047C102.614 5.01047 104.163 5.36306 105.669 6.06825L104.581 8.71186C103.919 8.42322 103.3 8.18721 102.725 8.00271C102.149 7.81877 101.562 7.72652 100.963 7.72652C99.8989 7.72652 99.367 8.01912 99.367 8.60376C99.367 8.93202 99.538 9.21613 99.881 9.45666C100.224 9.6972 100.975 10.0538 102.134 10.5263ZM89.659 16.8708H89.5644C88.9573 17.6478 88.333 18.1866 87.6904 18.4871C87.0477 18.7871 86.2107 18.9377 85.1776 18.9377C83.9084 18.9377 82.9093 18.5692 82.1803 17.8323C81.4513 17.0949 81.0866 16.0456 81.0866 14.6839C81.0866 13.2582 81.5772 12.2067 82.559 11.5298C83.5403 10.8529 85.02 10.4782 86.9987 10.4058L89.2926 10.3339V9.7453C89.2926 8.38303 88.607 7.70218 87.2354 7.70218C86.1789 7.70218 84.9376 8.02648 83.5108 8.67563L82.3162 6.20012C83.8377 5.39136 85.5246 4.98669 87.3774 4.98669C89.1506 4.98669 90.5105 5.37891 91.4567 6.16446C92.4023 6.94945 92.8752 8.14306 92.8752 9.7453V18.6971H90.3568L89.659 16.8708ZM89.2926 12.4727L87.8975 12.5208C86.8489 12.553 86.0686 12.7455 85.5563 13.0975C85.0439 13.4501 84.7878 13.9866 84.7878 14.7077C84.7878 15.7411 85.3708 16.2578 86.5376 16.2578C87.3729 16.2578 88.0412 16.0139 88.5419 15.5249C89.0425 15.0365 89.2926 14.3873 89.2926 13.5786V12.4727ZM76.6647 8.18891C76.1758 8.04062 75.6868 7.96648 75.1984 7.96648C73.3222 7.96648 72.3843 9.32083 72.3843 12.0284C72.3843 14.6556 73.3222 15.9698 75.1984 15.9698C75.8917 15.9698 76.5344 15.8752 77.1258 15.6873C77.7167 15.4989 78.3082 15.2046 78.899 14.8039V17.9404C78.316 18.3168 77.7267 18.5771 77.1314 18.7215C76.5361 18.8658 75.7854 18.9377 74.8793 18.9377C70.7643 18.9377 68.7071 16.6427 68.7071 12.0522C68.7071 9.76907 69.2662 8.02478 70.3862 6.81928C71.505 5.61378 73.1094 5.01047 75.1984 5.01047C76.7277 5.01047 78.0993 5.31495 79.3134 5.92393L78.2491 8.75996C77.6816 8.52735 77.1531 8.33719 76.6647 8.18891Z" fill="white"/>
</g>
<defs>
<clipPath id="clip0_4_53">
<rect width="120" height="25" fill="white"/>
</clipPath>
</defs>
</svg>
