<svg width="145" height="35" viewBox="0 0 145 35" fill="none" xmlns="http://www.w3.org/2000/svg">
<path d="M52.4682 19.8185L48.3271 16.9942C46.7101 15.854 46.0043 14.8134 46.0043 13.5754C46.0043 11.9892 47.3183 10.9996 49.1864 10.9996C51.5611 10.9996 52.6716 12.089 54.0852 12.089C55.1957 12.089 55.9534 11.3458 55.9534 10.2564C55.9534 9.4643 55.5486 8.8188 54.4879 8.324C52.8211 7.532 51.0027 7.2347 49.0328 7.2347C46.9612 7.2347 45.1429 7.8292 43.831 8.8209C43.5777 9.0184 43.3266 9.2179 43.0733 9.4643C41.558 11.0505 40.296 13.3779 39.2851 16.6481L38.1227 20.413C36.0511 27.0531 32.7693 30.2235 27.6671 30.2235C22.0605 30.2235 18.5255 26.4076 18.5255 20.7612C18.5255 15.1128 22.0605 11.248 27.1627 11.248C27.3848 11.248 27.6007 11.2542 27.8145 11.2664C27.8394 11.2684 27.8664 11.2684 27.8913 11.2704C28.0823 11.2806 28.2712 11.2969 28.4559 11.3173C28.4871 11.3213 28.5182 11.3234 28.5493 11.3275C28.7341 11.3478 28.9147 11.3743 29.0932 11.4028C29.1202 11.4069 29.1471 11.4109 29.1741 11.415C29.363 11.4476 29.5478 11.4822 29.7304 11.5229C29.745 11.527 29.7595 11.529 29.772 11.5311C30.569 11.7103 31.3101 11.9689 32.0138 12.2906C32.6697 12.5879 33.226 12.6876 33.7304 12.6876C34.9426 12.6876 35.7501 11.8956 35.7501 10.7064C35.7501 9.9632 35.2955 9.22 34.2348 8.7252C32.3147 7.7845 29.8404 7.2387 27.1627 7.2387C19.1815 7.2387 13.6766 12.7874 13.6766 20.863C13.6766 22.9888 14.0627 24.9395 14.785 26.6581C13.7368 28.8938 12.1343 30.0789 10.0399 30.0789C7.5137 30.0789 5.8469 28.6414 5.8469 25.3712V11.3987H11.7565C13.1203 11.3987 14.0295 10.6066 14.0295 9.4664C14.0295 8.3261 13.1203 7.534 11.7565 7.534H5.8489V2.4781C5.8489 0.9917 4.8381 0 3.4245 0C2.0109 0 1 0.9917 1 2.4781V12.2885V25.9128C1 31.3638 4.1821 34.2369 9.5853 34.2369C10.7975 34.2369 11.9081 34.0393 12.9189 33.6912C14.6896 33.0396 16.1114 31.8932 17.1161 30.252C19.5157 32.7952 23.0777 34.2857 27.5156 34.2857C29.8384 34.2857 31.8601 33.8398 33.6785 32.8991C37.365 31.0156 39.9929 27.2018 41.8113 21.3558L42.872 17.937C43.5798 18.8635 44.57 19.7492 45.9026 20.6614L49.6908 23.2372C51.4075 24.4264 52.1153 25.418 52.1153 26.8536C52.1153 28.9834 50.3987 30.421 47.9223 30.421C45.5476 30.421 43.5279 29.2319 42.4174 29.2319C41.3069 29.2319 40.5492 29.9751 40.5492 31.0644C40.5492 31.8565 40.954 32.502 42.0147 32.9968C43.4802 33.6912 45.8528 34.2857 47.9742 34.2857C50.6519 34.2857 52.873 33.4936 54.4401 32.1049C55.8537 30.816 56.7131 28.9834 56.7131 26.8536C56.711 23.8827 55.4988 21.8995 52.4682 19.8185Z" fill="white"/>
<path d="M65.9894 8.5377H69.3938V2.4575H71.809V0H63.5742V2.4575H65.9894V8.5377Z" fill="white"/>
<path d="M74.32 8.5377L76.0553 3.432L77.7879 8.5377H81.1183L77.854 0H74.2538L70.9922 8.5377H74.32Z" fill="white"/>
<path d="M82.7159 8.5377H86.12V2.4575H88.535V0H80.3008V2.4575H82.7159V8.5377Z" fill="white"/>
<path d="M91.039 8.5377L92.774 3.432L94.507 8.5377H97.837L94.575 0H90.973L87.711 8.5377H91.039Z" fill="white"/>
<path d="M123.713 14.6455C124.134 15.612 124.689 16.6581 125.242 17.5902L127.469 21.3453H129.083V12.8076H127.641V15.7868C127.641 17.0924 127.67 18.1914 127.782 19.3248L127.752 19.3327C127.358 18.4059 126.864 17.4128 126.3 16.4727L124.097 12.8076H122.316V21.3453H123.755V18.292C123.755 16.8911 123.734 15.763 123.673 14.6534L123.713 14.6455Z" fill="white"/>
<path d="M115.988 18.9328H118.697L119.469 21.3453H121.141L118.372 12.8076H116.39L113.652 21.3453H115.263L115.988 18.9328ZM116.901 15.6465C117.052 15.138 117.181 14.5475 117.305 14.047H117.332C117.462 14.5422 117.602 15.1248 117.763 15.6518L118.435 17.7571H116.237L116.901 15.6465Z" fill="white"/>
<path d="M90.591 20.187C89.797 20.187 89.033 19.9327 88.53 19.6415L88.184 20.9338C88.649 21.2198 89.586 21.4793 90.488 21.4793C92.688 21.4793 93.723 20.2876 93.723 18.9132C93.723 17.6871 93.011 16.9403 91.53 16.3763C90.392 15.942 89.898 15.6321 89.898 14.978C89.898 14.4749 90.318 13.9505 91.308 13.9505C92.109 13.9505 92.704 14.1942 93.011 14.3557L93.384 13.0978C92.94 12.8727 92.263 12.6768 91.339 12.6768C89.49 12.6768 88.321 13.7307 88.321 15.129C88.321 16.3524 89.22 17.1098 90.63 17.6103C91.707 18.0022 92.141 18.3836 92.141 19.0271C92.141 19.7209 91.583 20.187 90.591 20.187Z" fill="white"/>
<path d="M68.2061 13.9628C68.9018 13.9628 69.4706 14.1164 69.8674 14.2965L70.206 13.0545C69.8885 12.8824 69.1664 12.6758 68.14 12.6758C65.5344 12.6758 63.5742 14.3706 63.5742 17.1777C63.5742 19.7755 65.2222 21.481 67.9284 21.481C68.96 21.481 69.7721 21.277 70.1398 21.0917L69.8832 19.8629C69.4732 20.0483 68.8145 20.1728 68.1823 20.1728C66.3068 20.1728 65.2143 18.9811 65.2143 17.0982C65.2143 15.0486 66.4655 13.9628 68.2061 13.9628Z" fill="white"/>
<path d="M111.752 21.3453V14.1185H114.21V12.8076H107.758V14.1185H110.194V21.3453H111.752Z" fill="white"/>
<path d="M142.888 12.8076L141.861 14.995C141.57 15.6147 141.335 16.1443 141.123 16.6899H141.097C140.864 16.1126 140.642 15.6253 140.353 14.9977L139.338 12.8076H137.555L140.253 17.7915V21.3453H141.811V17.7491L144.644 12.8103H142.888V12.8076Z" fill="white"/>
<path d="M74.7128 12.6689C72.3056 12.6689 70.6523 14.5199 70.6523 17.1416C70.6523 19.6415 72.176 21.4873 74.5885 21.4873H74.6017C76.9375 21.4873 78.6702 19.8507 78.6702 16.9907C78.6649 14.5491 77.1994 12.6689 74.7128 12.6689ZM74.652 20.2373H74.6388C73.1495 20.2373 72.2792 18.802 72.2845 17.1045C72.2818 15.4018 73.1019 13.9162 74.6573 13.9162C76.2127 13.9162 77.0116 15.4388 77.0116 17.0489C77.0089 18.8338 76.1572 20.2373 74.652 20.2373Z" fill="white"/>
<path d="M135.062 13.9628C135.757 13.9628 136.326 14.1164 136.723 14.2965L137.061 13.0545C136.744 12.8824 136.022 12.6758 134.995 12.6758C132.39 12.6758 130.43 14.3706 130.43 17.1777C130.43 19.7755 132.078 21.481 134.784 21.481C135.815 21.481 136.628 21.2797 136.995 21.0917L136.739 19.8629C136.329 20.0483 135.67 20.1728 135.038 20.1728C133.162 20.1728 132.07 18.9811 132.07 17.0982C132.07 15.0486 133.321 13.9628 135.062 13.9628Z" fill="white"/>
<path d="M105.107 12.8076H103.549V21.3453H108.615V20.0371H105.107V12.8076Z" fill="white"/>
<path d="M101.776 17.6839V12.8086H100.218V17.7872C100.218 19.4608 99.543 20.2314 98.422 20.2314C97.366 20.2314 96.673 19.4555 96.673 17.7872V12.8086H95.115V17.6945C95.115 20.3797 96.398 21.4893 98.364 21.4893C100.424 21.4867 101.776 20.3135 101.776 17.6839Z" fill="white"/>
<path d="M86.78 12.8076H85.3386V15.7868C85.3386 17.0924 85.3677 18.1914 85.4788 19.3248L85.4497 19.3327C85.0556 18.4059 84.5609 17.4128 83.9975 16.4727L81.7939 12.8076H80.0137V21.3453H81.4554V18.292C81.4554 16.8911 81.4342 15.763 81.3733 14.6561L81.413 14.6481C81.8336 15.6147 82.3891 16.6607 82.942 17.5929L85.1693 21.348H86.783V12.8076H86.78Z" fill="white"/>
<path d="M93.441 25.6123H91.883V34.15H93.441V25.6123Z" fill="white"/>
<path d="M81.1666 30.146V30.1116C81.9629 29.8282 82.7036 29.0867 82.7036 27.9957C82.7036 27.2701 82.439 26.6822 81.9761 26.2956C81.4047 25.8189 80.4207 25.6123 79.3652 25.6123C78.3097 25.6123 77.6114 25.6865 77.0215 25.7951V34.15H78.5557V30.6677H79.3335C80.2117 30.6889 80.6138 31.0464 80.8571 32.1506C81.0926 33.2046 81.2963 33.9037 81.4259 34.15H83.0131C82.8438 33.819 82.6136 32.8471 82.3464 31.7879C82.1348 30.9643 81.7804 30.379 81.1666 30.146ZM79.471 29.5316H78.5557V26.8543C78.7118 26.8146 79.0266 26.7775 79.516 26.7775C80.5159 26.7802 81.164 27.2118 81.164 28.136C81.164 28.9781 80.5186 29.5316 79.471 29.5316Z" fill="white"/>
<path d="M88.069 29.5154C87.738 30.5509 87.429 31.5942 87.201 32.6005H87.175C86.952 31.5678 86.661 30.5694 86.339 29.4916L85.1748 25.6094H83.4766L86.236 34.1471H88.021L90.968 25.6094H89.309L88.069 29.5154Z" fill="white"/>
<path d="M104.222 30.3605H107.436V29.0894H104.222V26.894H107.627V25.6123H102.664V34.1474H107.814V32.8657H104.222V30.3605Z" fill="white"/>
<path d="M99.409 26.7636C100.105 26.7636 100.674 26.9172 101.07 27.0973L101.409 25.8553C101.092 25.6831 100.37 25.4766 99.343 25.4766C96.738 25.4766 94.777 27.1714 94.777 29.9785C94.777 32.5763 96.425 34.2817 99.132 34.2817C100.163 34.2817 100.975 34.0805 101.343 33.8925L101.086 32.6637C100.674 32.8491 100.018 32.9735 99.385 32.9735C97.51 32.9735 96.417 31.7819 96.417 29.899C96.417 27.8493 97.669 26.7636 99.409 26.7636Z" fill="white"/>
<path d="M66.9192 29.1761C65.7791 28.7418 65.2871 28.4319 65.2871 27.7778C65.2871 27.2747 65.7077 26.7504 66.6944 26.7504C67.4959 26.7504 68.0911 26.994 68.3979 27.1555L68.7709 25.8976C68.3265 25.6726 67.6493 25.4766 66.7261 25.4766C64.8771 25.4766 63.7079 26.5306 63.7079 27.9288C63.7079 29.1522 64.6073 29.9096 66.0172 30.4101C67.0938 30.802 67.5276 31.1834 67.5276 31.8269C67.5276 32.526 66.9721 32.9921 65.9775 32.9921C65.1839 32.9921 64.4194 32.7379 63.9168 32.4466L63.5703 33.7389C64.0359 34.0249 64.9723 34.2844 65.8743 34.2844C68.0752 34.2844 69.1095 33.0927 69.1095 31.7183C69.1122 30.4869 68.4006 29.7401 66.9192 29.1761Z" fill="white"/>
<path d="M72.0717 30.3605H75.2858V29.0894H72.0717V26.894H75.4789V25.6123H70.5137V34.1474H75.6667V32.8657H72.0717V30.3605Z" fill="white"/>
<path d="M112.148 29.1761C111.01 28.7418 110.516 28.4319 110.516 27.7778C110.516 27.2747 110.936 26.7504 111.923 26.7504C112.724 26.7504 113.32 26.994 113.626 27.1555L113.999 25.8976C113.555 25.6726 112.878 25.4766 111.955 25.4766C110.106 25.4766 108.936 26.5306 108.936 27.9288C108.936 29.1522 109.836 29.9096 111.246 30.4101C112.322 30.802 112.756 31.1834 112.756 31.8269C112.756 32.526 112.201 32.9921 111.206 32.9921C110.412 32.9921 109.648 32.7379 109.145 32.4466L108.799 33.7389C109.264 34.0249 110.201 34.2844 111.103 34.2844C113.304 34.2844 114.338 33.0927 114.338 31.7183C114.341 30.4869 113.629 29.7401 112.148 29.1761Z" fill="white"/>
</svg>
