<svg width="145" height="31" viewBox="0 0 145 31" fill="none" xmlns="http://www.w3.org/2000/svg">
<g clip-path="url(#clip0_3_32)">
<mask id="mask0_3_32" style="mask-type:luminance" maskUnits="userSpaceOnUse" x="0" y="0" width="145" height="31">
<path d="M145 0H0V30.4557H145V0Z" fill="white"/>
</mask>
<g mask="url(#mask0_3_32)">
<path d="M43.3814 10.4452V9.31738H51.2027L44.7612 19.8517H51.0244V21.0571H42.6024L49.0129 10.4724H43.4473L43.3814 10.4452Z" fill="white"/>
<path d="M68.3917 10.4567V9.28625H63.5586H62.299V10.4567V13.9953V15.2239V19.8671V21.0376H63.5586H68.3917V19.8671H63.5586V15.2239H68.225V13.9953H63.5586V10.4567H68.3917Z" fill="white"/>
<path d="M80.8096 21.0493H79.5229V8.77087L88.7317 18.4176V9.32898H89.9836V21.4989L80.8019 12.3211L80.8096 21.0493Z" fill="white"/>
<path d="M101.13 9.31738L105.897 21.7547L110.676 9.31738H109.293L105.901 18.127L102.537 9.31738H101.13Z" fill="white"/>
<path d="M123.156 9.31738H121.815V21.0493H123.156V9.31738Z" fill="white"/>
<path d="M139.644 11.7746L141.651 16.5069H137.632L139.644 11.7746ZM134.253 21.0299H135.714L137.14 17.6696H142.147L143.574 21.0299H145L139.71 8.70496L134.253 21.0299Z" fill="white"/>
<path d="M57.8341 15.379C57.8349 15.6007 57.7698 15.8177 57.6472 16.0024C57.5246 16.1871 57.35 16.3313 57.1454 16.4166C56.9408 16.502 56.7154 16.5247 56.4979 16.482C56.2804 16.4392 56.0804 16.3328 55.9234 16.1763C55.7663 16.0198 55.6593 15.8202 55.6157 15.6029C55.5722 15.3855 55.5942 15.1601 55.6788 14.9552C55.7635 14.7503 55.9071 14.5751 56.0913 14.4519C56.2756 14.3286 56.4923 14.2628 56.714 14.2628C57.0104 14.2628 57.2947 14.3803 57.5047 14.5895C57.7146 14.7987 57.8331 15.0826 57.8341 15.379Z" fill="white"/>
<path d="M75.0619 15.379C75.0627 15.6007 74.9976 15.8177 74.875 16.0024C74.7524 16.1871 74.5777 16.3313 74.3731 16.4166C74.1685 16.502 73.9432 16.5247 73.7257 16.482C73.5081 16.4392 73.3082 16.3328 73.1512 16.1763C72.9941 16.0198 72.8871 15.8202 72.8435 15.6029C72.8 15.3855 72.8219 15.1601 72.9066 14.9552C72.9913 14.7503 73.1348 14.5751 73.3191 14.4519C73.5034 14.3286 73.7201 14.2628 73.9418 14.2628C74.2382 14.2628 74.5225 14.3803 74.7325 14.5895C74.9424 14.7987 75.0609 15.0826 75.0619 15.379Z" fill="white"/>
<path d="M97.1344 15.3093C97.1344 15.5308 97.0687 15.7474 96.9456 15.9316C96.8225 16.1158 96.6476 16.2594 96.4429 16.3441C96.2382 16.4289 96.013 16.4511 95.7957 16.4079C95.5785 16.3647 95.3789 16.258 95.2222 16.1013C95.0656 15.9447 94.9589 15.7451 94.9157 15.5278C94.8725 15.3105 94.8947 15.0853 94.9794 14.8807C95.0642 14.676 95.2078 14.5011 95.392 14.378C95.5762 14.2549 95.7927 14.1892 96.0143 14.1892C96.3113 14.1892 96.5962 14.3072 96.8063 14.5173C97.0164 14.7273 97.1344 15.0122 97.1344 15.3093Z" fill="white"/>
<path d="M116.067 15.3596C116.067 15.5811 116.002 15.7977 115.879 15.9819C115.756 16.1661 115.581 16.3097 115.376 16.3944C115.171 16.4792 114.946 16.5014 114.729 16.4582C114.512 16.415 114.312 16.3083 114.155 16.1516C113.999 15.995 113.892 15.7954 113.849 15.5781C113.806 15.3608 113.828 15.1356 113.913 14.931C113.997 14.7263 114.141 14.5513 114.325 14.4283C114.509 14.3052 114.726 14.2395 114.947 14.2395C115.244 14.2395 115.529 14.3575 115.739 14.5676C115.949 14.7776 116.067 15.0625 116.067 15.3596Z" fill="white"/>
<path d="M131.067 15.3674C131.067 15.5889 131.001 15.8055 130.878 15.9897C130.755 16.1739 130.58 16.3175 130.375 16.4022C130.17 16.487 129.945 16.5092 129.728 16.466C129.511 16.4228 129.311 16.3161 129.154 16.1594C128.998 16.0028 128.891 15.8032 128.848 15.5859C128.805 15.3687 128.827 15.1434 128.912 14.9388C128.996 14.7341 129.14 14.5592 129.324 14.4361C129.508 14.313 129.725 14.2473 129.947 14.2473C130.244 14.2473 130.528 14.3653 130.739 14.5754C130.949 14.7854 131.067 15.0703 131.067 15.3674Z" fill="white"/>
<path d="M0 30.4557H31.3007V0H0V30.4557ZM30.3588 29.5256H0.930183V0.926307H30.3588V29.5256Z" fill="white"/>
<path d="M27.6381 20.2819H9.33672C9.18556 20.2819 9.20882 20.2819 9.20882 20.4137C9.20882 21.5764 9.20882 22.7081 9.20882 23.8554C9.20882 23.9988 9.2282 23.9523 9.12743 24.053C8.4763 24.6925 7.84455 25.3592 7.18954 25.9909C7.13427 25.9987 7.07817 25.9987 7.02289 25.9909C7.00176 25.9931 6.98043 25.99 6.96081 25.9819C6.94118 25.9738 6.92389 25.9609 6.91049 25.9444L5.02299 24.0608C4.91447 23.9523 4.92998 23.9988 4.92998 23.8437V16.0496C4.92998 15.8868 4.92998 15.9101 5.07338 15.9101H27.6458C27.7892 15.9101 27.7776 15.9333 27.7776 15.786V3.10067C27.7776 2.94564 27.7776 2.96889 27.6419 2.96889H20.7702C20.6113 2.96889 20.6346 2.94564 20.6346 3.10842C20.6346 4.95328 20.6346 6.79814 20.6346 8.64688C20.6346 8.69727 20.5532 8.67014 20.5183 8.67789H13.5652C13.4722 8.67789 13.4838 8.65463 13.4838 8.57712C13.4838 8.14691 13.4838 7.7167 13.4838 7.28649C13.4832 7.28108 13.4838 7.27562 13.4855 7.27046C13.4872 7.2653 13.49 7.26056 13.4937 7.25654C13.4973 7.25252 13.5018 7.24931 13.5068 7.24713C13.5117 7.24494 13.5171 7.24383 13.5225 7.24386C14.9178 7.20122 16.4294 7.32525 17.7859 7.2051V5.9416C17.7859 5.79432 17.7859 5.8137 17.658 5.8137H13.5652C13.4915 5.8137 13.5032 5.77882 13.5032 5.72456V4.47656C13.5032 4.33316 13.5768 4.39129 13.6659 4.37967H19.1656C19.2238 4.37967 19.1928 4.30215 19.2005 4.26339V3.10067C19.2005 2.95339 19.2005 2.97277 19.0688 2.97277H12.197C12.0459 2.97277 12.0653 2.97277 12.0653 3.10842V8.57712C12.0653 8.67789 12.0653 8.67014 11.9684 8.67014H10.5072C8.66233 8.67014 6.8136 8.67014 4.96486 8.67014C4.92998 8.67014 4.92222 8.67014 4.91835 8.62363V7.364C4.91835 7.21672 4.91835 7.2361 5.05012 7.2361H10.5537C10.6312 7.2361 10.6312 7.2361 10.6351 7.15471V3.10067C10.6351 2.94951 10.6351 2.97277 10.5033 2.97277H3.60059C3.50757 2.97277 3.51145 2.97277 3.51145 3.06578V4.26339C3.51145 4.41067 3.48819 4.39129 3.63935 4.39129H9.15456C9.23207 4.39129 9.20107 4.47656 9.20494 4.52307C9.20494 4.91581 9.20494 5.30339 9.20494 5.6858C9.20494 5.83695 9.2282 5.8137 9.07704 5.8137H3.62772C3.49594 5.8137 3.51145 5.8137 3.51145 5.93385C3.51145 7.30199 3.51145 8.67014 3.51145 10.0383C3.46881 10.1197 3.83701 10.077 3.89902 10.0887C9.50854 10.0887 15.1181 10.0887 20.7276 10.0887H22.026C22.0608 10.0887 22.0686 10.0887 22.0686 10.0422C22.0686 9.35615 22.0686 8.67401 22.0686 7.988C22.0686 6.80202 22.0686 5.61604 22.0686 4.43393C22.0686 4.39129 22.0686 4.37967 22.1151 4.37967H26.2854C26.4676 7.58492 26.2854 11.0692 26.3474 14.3675C26.3474 14.5109 26.3474 14.4954 26.2195 14.4954H15.5031C11.542 14.4954 7.581 14.4954 3.61997 14.4954C3.57733 14.4954 3.5037 14.4722 3.49594 14.5342V14.6311C3.56183 17.9526 3.36804 21.3671 3.56183 24.6499L6.27486 27.3629C6.29549 27.3865 6.32123 27.405 6.35011 27.4171C6.379 27.4292 6.41026 27.4345 6.44152 27.4327H7.70115C8.70497 26.6188 9.58089 25.5568 10.546 24.6577C10.6428 24.5608 10.6273 24.5918 10.6273 24.4677V21.8167C10.6273 21.6849 10.6273 21.6966 10.7475 21.6966C12.1001 21.6966 13.4605 21.6966 14.8015 21.6966C14.9256 21.6966 14.9139 21.6966 14.9139 21.809V25.9444C14.9139 25.9677 14.9139 25.9832 14.8752 25.9832H12.1621C12.1234 25.9832 12.0497 25.9522 12.042 26.0142C12.042 26.4444 12.042 26.8746 12.042 27.3048C12.042 27.3436 12.042 27.4056 12.0885 27.3978H21.9446C22.0608 27.3978 22.0531 27.3978 22.0531 27.297C22.0531 26.394 22.0531 25.4909 22.0531 24.584C23.3709 24.46 24.8398 24.584 26.2079 24.5414C26.2583 24.5414 26.3474 24.5143 26.3436 24.5879C26.3436 25.5142 26.3436 26.4366 26.3436 27.3629C26.3436 27.4056 26.3978 27.3939 26.4288 27.3978H27.6885C27.7156 27.3978 27.7621 27.3978 27.766 27.3668C27.766 25.0414 27.766 22.7159 27.766 20.4137C27.766 20.2509 27.766 20.2742 27.6264 20.2742M20.6346 23.8399V25.8708C20.6346 26.0025 20.6346 25.987 20.5144 25.987H16.4604C16.3402 25.987 16.3441 25.987 16.3441 25.8669V21.8206C16.3441 21.6927 16.3441 21.7043 16.4642 21.7043C17.813 21.7043 19.1773 21.7043 20.5144 21.7043C20.6501 21.7043 20.6346 21.7043 20.6346 21.8245V23.8476M26.3552 21.8283V23.0143C26.3552 23.0531 26.3552 23.1267 26.3203 23.1306H22.1151C22.0608 23.1306 22.057 23.1306 22.057 23.0686C22.057 22.6345 22.057 22.1965 22.057 21.7586C22.057 21.7043 22.057 21.7004 22.119 21.6966H26.2118C26.3707 21.6966 26.3474 21.6966 26.3474 21.8283" fill="white"/>
</g>
</g>
<defs>
<clipPath id="clip0_3_32">
<rect width="145" height="30.4557" fill="white"/>
</clipPath>
</defs>
</svg>
