<svg width="40" height="40" viewBox="0 0 40 40" fill="none" xmlns="http://www.w3.org/2000/svg">
<g clip-path="url(#clip0_40_221)">
<g filter="url(#filter0_d_40_221)">
<path fill-rule="evenodd" clip-rule="evenodd" d="M40 12.4525C40 11.9778 40.0002 11.5031 39.9973 11.0284C39.9949 10.6285 39.9903 10.2287 39.9794 9.82906C39.9559 8.95792 39.9045 8.0793 39.7496 7.21786C39.5925 6.34401 39.3359 5.5307 38.9315 4.73671C38.534 3.95631 38.0148 3.24219 37.3953 2.62308C36.7759 2.00397 36.0615 1.48506 35.2808 1.0878C34.486 0.683356 33.6719 0.426861 32.797 0.26979C31.9355 0.115098 31.0567 0.0638084 30.1855 0.0402745C29.7855 0.0294537 29.3856 0.0248925 28.9855 0.0224178C28.5105 0.0195064 28.0356 0.019749 27.5607 0.019749L22.0461 0H17.9216L12.5046 0.019749C12.0287 0.019749 11.5529 0.0195064 11.077 0.0224178C10.6761 0.0248925 10.2754 0.0294537 9.87465 0.0402745C9.00147 0.0638084 8.12063 0.115146 7.25706 0.270033C6.38107 0.427055 5.56568 0.683453 4.7698 1.0876C3.98746 1.48491 3.2716 2.00387 2.65089 2.62308C2.03027 3.24214 1.51006 3.95612 1.11183 4.73637C0.706365 5.53075 0.449289 6.34454 0.291783 7.21888C0.136702 8.07998 0.085316 8.9583 0.0616852 9.82906C0.050913 10.2288 0.0462548 10.6286 0.0438286 11.0284C0.0409172 11.5032 0.01651 12.0929 0.01651 12.5676L0.0166556 17.9095L0.01651 22.0782L0.0411598 27.5336C0.0411598 28.009 0.0409657 28.4843 0.0438286 28.9596C0.0462548 29.36 0.050913 29.7604 0.0617337 30.1606C0.085316 31.0329 0.136799 31.9128 0.292025 32.7754C0.449483 33.6504 0.706511 34.4649 1.11163 35.2599C1.50991 36.0414 2.03023 36.7564 2.65089 37.3764C3.27155 37.9964 3.98722 38.516 4.76941 38.9138C5.56578 39.3188 6.38155 39.5756 7.25808 39.7329C8.12126 39.8878 9.00181 39.9392 9.87465 39.9628C10.2754 39.9736 10.6762 39.9782 11.0771 39.9806C11.5529 39.9835 12.0287 39.9833 12.5046 39.9833L17.9706 39.9835H22.1053L27.5607 39.9833C28.0356 39.9833 28.5105 39.9835 28.9855 39.9806C29.3856 39.9782 29.7855 39.9736 30.1855 39.9628C31.057 39.9392 31.9361 39.8877 32.7981 39.7327C33.6724 39.5754 34.4861 39.3187 35.2805 38.914C36.0613 38.5162 36.7758 37.9965 37.3953 37.3764C38.0147 36.7565 38.5339 36.0416 38.9314 35.2602C39.336 34.4648 39.5926 33.65 39.7498 32.7743C39.9046 31.9121 39.9559 31.0325 39.9795 30.1606C39.9903 29.7603 39.9949 29.36 39.9973 28.9596C40.0002 28.4843 40 28.009 40 27.5336C40 27.5336 39.9997 22.1745 39.9997 22.0782V17.9052C39.9997 17.834 40 12.4525 40 12.4525Z" fill="#1B1B1B"/>
</g>
<mask id="mask0_40_221" style="mask-type:luminance" maskUnits="userSpaceOnUse" x="0" y="0" width="40" height="40">
<path fill-rule="evenodd" clip-rule="evenodd" d="M39.9835 12.4525C39.9835 11.9778 39.9837 11.5031 39.9808 11.0284C39.9784 10.6285 39.9738 10.2287 39.9629 9.82906C39.9394 8.95792 39.888 8.0793 39.7331 7.21786C39.576 6.34401 39.3194 5.5307 38.915 4.73671C38.5175 3.95631 37.9983 3.24219 37.3787 2.62308C36.7593 2.00397 36.045 1.48506 35.2643 1.0878C34.4695 0.683356 33.6554 0.426861 32.7805 0.26979C31.919 0.115098 31.0401 0.0638084 30.169 0.0402745C29.769 0.0294537 29.3691 0.0248925 28.969 0.0224178C28.494 0.0195064 28.0191 0.019749 27.5441 0.019749L22.0296 0H17.9051L12.4881 0.019749C12.0122 0.019749 11.5364 0.0195064 11.0605 0.0224178C10.6596 0.0248925 10.2589 0.0294537 9.85814 0.0402745C8.98496 0.0638084 8.10412 0.115146 7.24055 0.270033C6.36456 0.427055 5.54917 0.683453 4.75329 1.0876C3.97095 1.48491 3.25509 2.00387 2.63438 2.62308C2.01376 3.24214 1.49355 3.95612 1.09532 4.73637C0.689855 5.53075 0.432779 6.34454 0.275273 7.21888C0.120192 8.07998 0.068806 8.9583 0.0451752 9.82906C0.034403 10.2288 0.0297448 10.6286 0.0273186 11.0284C0.0244072 11.5032 0 12.0929 0 12.5676L0.00014557 17.9095L0 22.0782L0.0246498 27.5336C0.0246498 28.009 0.0244557 28.4843 0.0273186 28.9596C0.0297448 29.36 0.034403 29.7604 0.0452237 30.1606C0.068806 31.0329 0.120289 31.9128 0.275515 32.7754C0.432973 33.6504 0.690001 34.4649 1.09512 35.2599C1.4934 36.0414 2.01372 36.7564 2.63438 37.3764C3.25504 37.9964 3.97071 38.516 4.7529 38.9138C5.54927 39.3188 6.36504 39.5756 7.24157 39.7329C8.10475 39.8878 8.9853 39.9392 9.85814 39.9628C10.2589 39.9736 10.6596 39.9782 11.0605 39.9806C11.5364 39.9835 12.0122 39.9833 12.4881 39.9833L17.9541 39.9835H22.0888L27.5441 39.9833C28.0191 39.9833 28.494 39.9835 28.969 39.9806C29.3691 39.9782 29.769 39.9736 30.169 39.9628C31.0405 39.9392 31.9196 39.8877 32.7816 39.7327C33.6558 39.5754 34.4696 39.3187 35.264 38.914C36.0448 38.5162 36.7593 37.9965 37.3787 37.3764C37.9982 36.7565 38.5174 36.0416 38.9149 35.2602C39.3195 34.4648 39.5761 33.65 39.7333 32.7743C39.8881 31.9121 39.9394 31.0325 39.9629 30.1606C39.9738 29.7603 39.9784 29.36 39.9808 28.9596C39.9837 28.4843 39.9835 28.009 39.9835 27.5336C39.9835 27.5336 39.9832 22.1745 39.9832 22.0782V17.9052C39.9832 17.834 39.9835 12.4525 39.9835 12.4525Z" fill="white"/>
</mask>
<g mask="url(#mask0_40_221)">
<rect width="39.9835" height="39.9835" transform="translate(0.01651 -0.0113804)" fill="#1B1B1B"/>
<rect width="39.9835" height="39.9835" transform="translate(0.01651 -0.0113804)" fill="url(#paint0_radial_40_221)"/>
<rect width="39.9835" height="39.9835" transform="translate(0.01651 -0.0113804)" fill="url(#paint1_radial_40_221)"/>
<g filter="url(#filter1_f_40_221)">
<path d="M27.5012 33.9974C27.2985 35.4947 25.825 36.6645 24.3606 36.2606C22.2742 35.689 19.8584 34.7974 17.6847 34.6313C17.3981 34.6094 14.3532 34.3798 14.3532 34.3798C13.8146 34.3417 13.309 34.1076 12.9328 33.7224L7.19233 27.8442C6.56498 27.2018 6.39516 26.2439 6.7638 25.427C6.7638 25.427 10.3134 17.6697 10.4453 17.2663C10.5771 16.8629 11.0609 13.3445 11.3476 11.4544C11.4236 10.9535 11.6723 10.4943 12.0511 10.1555L18.8419 4.08109C19.7867 3.23601 21.2532 3.36125 22.0392 4.35412L27.7438 11.5601C28.0666 11.9679 28.232 12.4747 28.2344 12.9937C28.241 14.3589 28.3542 17.1618 29.1133 18.9671C29.8518 20.7232 31.207 22.6197 31.9153 23.5528C32.1871 23.911 32.2287 24.3953 31.9991 24.7816C31.4992 25.6232 30.5116 27.2391 29.1133 29.3124C28.1493 30.7419 27.7026 32.509 27.5012 33.9974Z" fill="black" fill-opacity="0.29"/>
</g>
<path d="M27.5568 33.7472C27.3542 35.2514 25.8822 36.4264 24.4193 36.0207C22.3349 35.4465 19.9215 34.5509 17.7499 34.384C17.4636 34.362 14.4217 34.1314 14.4217 34.1314C13.8836 34.0931 13.3786 33.858 13.0028 33.471L7.26792 27.566C6.64118 26.9208 6.47154 25.9585 6.83981 25.1379C6.83981 25.1379 10.3859 17.3454 10.5176 16.9401C10.6493 16.5349 11.1327 13.0005 11.4191 11.1018C11.495 10.5986 11.7435 10.1374 12.1218 9.79703L18.906 3.695C19.8499 2.84609 21.3149 2.97189 22.1001 3.96927L27.7991 11.208C28.1216 11.6177 28.2868 12.1268 28.2893 12.6481C28.2958 14.0195 28.4089 16.8352 29.1673 18.6487C29.905 20.4127 31.2589 22.3178 31.9665 23.2552C32.238 23.615 32.2796 24.1015 32.0502 24.4896C31.5508 25.335 30.5642 26.9582 29.1673 29.0409C28.2043 30.4769 27.758 32.2521 27.5568 33.7472Z" fill="#6C31E3"/>
<path d="M13.6207 33.9174C16.284 28.5106 16.2097 24.6371 15.0764 21.8727C14.0334 19.3289 12.0936 17.7243 10.5646 16.7285C10.5324 16.8724 10.4857 17.0128 10.4253 17.1477L6.8397 25.1379C6.47143 25.9585 6.64108 26.9208 7.26781 27.5661L13.0027 33.4711C13.1826 33.6563 13.3921 33.8067 13.6207 33.9174Z" fill="url(#paint2_radial_40_221)"/>
<path d="M24.42 36.02C25.8826 36.4256 27.3544 35.2506 27.5569 33.7464C27.7313 32.4515 28.0893 30.9463 28.8078 29.6335C27.1593 26.0852 25.166 24.2452 22.9807 23.4296C20.6676 22.5663 18.1395 22.8509 15.578 23.473C16.1507 26.0789 15.8079 29.4822 13.6237 33.9169C13.8724 34.0373 14.1436 34.1107 14.4238 34.1306C14.4238 34.1306 15.9999 34.2634 17.8743 34.396C19.7487 34.5287 22.538 35.4981 24.42 36.02Z" fill="url(#paint3_radial_40_221)"/>
<path d="M20.8684 22.9432C21.5881 23.0184 22.2935 23.1735 22.98 23.4297C25.1657 24.2453 27.1595 26.0854 28.8081 29.6334C28.919 29.4309 29.0385 29.2329 29.1673 29.0409C30.5641 26.9582 31.5508 25.335 32.0502 24.4896C32.2796 24.1015 32.238 23.615 31.9664 23.2552C31.2588 22.3178 29.9049 20.4127 29.1673 18.6487C28.4089 16.8352 28.2957 14.0195 28.2893 12.6481C28.2868 12.1268 28.1215 11.6177 27.7991 11.2079L22.1001 3.96926C22.0696 3.93055 22.0381 3.89316 22.0056 3.85709C22.4238 5.22748 22.3955 6.32988 22.1375 7.33204C21.8983 8.26106 21.4617 9.10394 21.0006 9.99426L21.0005 9.99438C20.8458 10.293 20.6885 10.5969 20.5347 10.9113C19.9229 12.1628 19.3705 13.5791 19.289 15.4783C19.2075 17.3775 19.5968 19.7596 20.8686 22.9432L20.8684 22.9432Z" fill="url(#paint4_radial_40_221)"/>
<path d="M20.8676 22.9432C19.5959 19.7597 19.2064 17.3775 19.288 15.4782C19.3695 13.5789 19.9219 12.1626 20.5338 10.911C20.6876 10.5966 20.845 10.2926 20.9997 9.99395C21.4608 9.10361 21.8974 8.26081 22.1365 7.33187C22.3945 6.32948 22.4229 5.22679 22.0043 3.85582C21.2003 2.96351 19.8125 2.87942 18.9057 3.695L12.1216 9.79703C11.7432 10.1374 11.4947 10.5986 11.4188 11.1018L10.593 16.5764C10.5853 16.6272 10.5758 16.6776 10.5646 16.7278C12.0937 17.7236 14.0338 19.3283 15.0769 21.8724C15.2806 22.3694 15.4501 22.902 15.5757 23.4731C17.3771 23.0356 19.1622 22.7651 20.8676 22.9432Z" fill="url(#paint5_radial_40_221)"/>
<path fill-rule="evenodd" clip-rule="evenodd" d="M19.3013 15.3531C19.2195 17.2372 19.4547 19.3984 20.7237 22.5752L20.3252 22.5393C19.1867 19.2241 18.9389 17.5244 19.0218 15.6143C19.1048 13.7033 19.7222 12.2338 20.3376 10.9803C20.4934 10.6629 20.8571 10.0667 21.0127 9.76748C21.4734 8.8815 21.7801 8.41348 22.0434 7.60365C22.4113 6.47211 22.3317 5.93616 22.2897 5.4028C22.5819 7.33086 21.4731 9.00742 20.6348 10.715C20.0242 11.9589 19.383 13.47 19.3013 15.3531Z" fill="url(#paint6_radial_40_221)"/>
<path fill-rule="evenodd" clip-rule="evenodd" d="M15.4516 22.0128C15.6022 22.3608 15.7443 22.6419 15.8341 23.0725L15.5015 23.1473C15.3632 22.6444 15.2563 22.2867 15.0648 21.8553C13.9188 19.1518 12.0797 17.7611 10.5767 16.7411C12.3921 17.7178 14.2554 19.2465 15.4516 22.0128Z" fill="url(#paint7_radial_40_221)"/>
<path fill-rule="evenodd" clip-rule="evenodd" d="M15.8534 23.4127C16.4884 26.3677 15.78 30.1218 13.6924 33.771C15.4374 30.1545 16.2833 26.6809 15.5788 23.4716L15.8534 23.4127Z" fill="url(#paint8_radial_40_221)"/>
<path fill-rule="evenodd" clip-rule="evenodd" d="M23.0588 23.1469C26.4817 24.4278 27.7996 27.2403 28.7847 29.5864C27.568 27.1297 25.8766 24.4166 22.936 23.4095C20.6986 22.6432 18.8089 22.7341 15.5785 23.4672L15.5065 23.1469C18.9349 22.3658 20.7274 22.2744 23.0588 23.1469Z" fill="url(#paint9_radial_40_221)"/>
<g filter="url(#filter2_i_40_221)" style="mix-blend-mode:screen">
<path fill-rule="evenodd" clip-rule="evenodd" d="M40 12.4525C40 11.9778 40.0002 11.5031 39.9973 11.0284C39.9949 10.6285 39.9903 10.2287 39.9794 9.82906C39.9559 8.95792 39.9045 8.0793 39.7496 7.21786C39.5925 6.34401 39.3359 5.5307 38.9315 4.73671C38.534 3.95631 38.0148 3.24219 37.3953 2.62308C36.7759 2.00397 36.0615 1.48506 35.2808 1.0878C34.486 0.683356 33.6719 0.426861 32.797 0.26979C31.9355 0.115098 31.0567 0.0638084 30.1855 0.0402745C29.7855 0.0294537 29.3856 0.0248925 28.9855 0.0224178C28.5105 0.0195064 28.0356 0.019749 27.5607 0.019749L22.0461 0H17.9216L12.5046 0.019749C12.0287 0.019749 11.5529 0.0195064 11.077 0.0224178C10.6761 0.0248925 10.2754 0.0294537 9.87465 0.0402745C9.00147 0.0638084 8.12063 0.115146 7.25706 0.270033C6.38107 0.427055 5.56568 0.683453 4.7698 1.0876C3.98746 1.48491 3.2716 2.00387 2.65089 2.62308C2.03027 3.24214 1.51006 3.95612 1.11183 4.73637C0.706365 5.53075 0.449289 6.34454 0.291783 7.21888C0.136702 8.07998 0.085316 8.9583 0.0616852 9.82906C0.050913 10.2288 0.0462548 10.6286 0.0438286 11.0284C0.0409172 11.5032 0.01651 12.0929 0.01651 12.5676L0.0166556 17.9095L0.01651 22.0782L0.0411598 27.5336C0.0411598 28.009 0.0409657 28.4843 0.0438286 28.9596C0.0462548 29.36 0.050913 29.7604 0.0617337 30.1606C0.085316 31.0329 0.136799 31.9128 0.292025 32.7754C0.449483 33.6504 0.706511 34.4649 1.11163 35.2599C1.50991 36.0414 2.03023 36.7564 2.65089 37.3764C3.27155 37.9964 3.98722 38.516 4.76941 38.9138C5.56578 39.3188 6.38155 39.5756 7.25808 39.7329C8.12126 39.8878 9.00181 39.9392 9.87465 39.9628C10.2754 39.9736 10.6762 39.9782 11.0771 39.9806C11.5529 39.9835 12.0287 39.9833 12.5046 39.9833L17.9706 39.9835H22.1053L27.5607 39.9833C28.0356 39.9833 28.5105 39.9835 28.9855 39.9806C29.3856 39.9782 29.7855 39.9736 30.1855 39.9628C31.057 39.9392 31.9361 39.8877 32.7981 39.7327C33.6724 39.5754 34.4861 39.3187 35.2805 38.914C36.0613 38.5162 36.7758 37.9965 37.3953 37.3764C38.0147 36.7565 38.5339 36.0416 38.9314 35.2602C39.336 34.4648 39.5926 33.65 39.7498 32.7743C39.9046 31.9121 39.9559 31.0325 39.9795 30.1606C39.9903 29.7603 39.9949 29.36 39.9973 28.9596C40.0002 28.4843 40 28.009 40 27.5336C40 27.5336 39.9997 22.1745 39.9997 22.0782V17.9052C39.9997 17.834 40 12.4525 40 12.4525Z" fill="black"/>
</g>
</g>
</g>
<defs>
<filter id="filter0_d_40_221" x="-0.464061" y="0" width="40.9446" height="40.9446" filterUnits="userSpaceOnUse" color-interpolation-filters="sRGB">
<feFlood flood-opacity="0" result="BackgroundImageFix"/>
<feColorMatrix in="SourceAlpha" type="matrix" values="0 0 0 0 0 0 0 0 0 0 0 0 0 0 0 0 0 0 127 0" result="hardAlpha"/>
<feOffset dy="0.480571"/>
<feGaussianBlur stdDeviation="0.240285"/>
<feColorMatrix type="matrix" values="0 0 0 0 0 0 0 0 0 0 0 0 0 0 0 0 0 0 0.3 0"/>
<feBlend mode="normal" in2="BackgroundImageFix" result="effect1_dropShadow_40_221"/>
<feBlend mode="normal" in="SourceGraphic" in2="effect1_dropShadow_40_221" result="shape"/>
</filter>
<filter id="filter1_f_40_221" x="5.94639" y="2.89556" width="26.8265" height="34.0704" filterUnits="userSpaceOnUse" color-interpolation-filters="sRGB">
<feFlood flood-opacity="0" result="BackgroundImageFix"/>
<feBlend mode="normal" in="SourceGraphic" in2="BackgroundImageFix" result="shape"/>
<feGaussianBlur stdDeviation="0.312371" result="effect1_foregroundBlur_40_221"/>
</filter>
<filter id="filter2_i_40_221" x="0.01651" y="0" width="39.9835" height="40.0315" filterUnits="userSpaceOnUse" color-interpolation-filters="sRGB">
<feFlood flood-opacity="0" result="BackgroundImageFix"/>
<feBlend mode="normal" in="SourceGraphic" in2="BackgroundImageFix" result="shape"/>
<feColorMatrix in="SourceAlpha" type="matrix" values="0 0 0 0 0 0 0 0 0 0 0 0 0 0 0 0 0 0 127 0" result="hardAlpha"/>
<feOffset dy="0.288342"/>
<feGaussianBlur stdDeviation="0.0240285"/>
<feComposite in2="hardAlpha" operator="arithmetic" k2="-1" k3="1"/>
<feColorMatrix type="matrix" values="0 0 0 0 1 0 0 0 0 1 0 0 0 0 1 0 0 0 0.07 0"/>
<feBlend mode="normal" in2="shape" result="effect1_innerShadow_40_221"/>
</filter>
<radialGradient id="paint0_radial_40_221" cx="0" cy="0" r="1" gradientUnits="userSpaceOnUse" gradientTransform="translate(19.9917 25.0758) rotate(90) scale(16.3247 21.228)">
<stop stop-opacity="0.35"/>
<stop offset="1" stop-opacity="0"/>
</radialGradient>
<radialGradient id="paint1_radial_40_221" cx="0" cy="0" r="1" gradientUnits="userSpaceOnUse" gradientTransform="translate(19.9917) rotate(90) scale(39.9835)">
<stop stop-color="white" stop-opacity="0.05"/>
<stop offset="1" stop-color="white" stop-opacity="0"/>
</radialGradient>
<radialGradient id="paint2_radial_40_221" cx="0" cy="0" r="1" gradientUnits="userSpaceOnUse" gradientTransform="translate(13.3343 33.3837) rotate(-104.574) scale(15.0017 9.99709)">
<stop stop-color="white" stop-opacity="0.4"/>
<stop offset="1" stop-opacity="0.1"/>
</radialGradient>
<radialGradient id="paint3_radial_40_221" cx="0" cy="0" r="1" gradientTransform="matrix(-5.41807 -11.1402 12.7905 -6.22253 23.7482 36.7448)" gradientUnits="userSpaceOnUse">
<stop stop-color="white" stop-opacity="0.3"/>
<stop offset="1" stop-opacity="0.25"/>
</radialGradient>
<radialGradient id="paint4_radial_40_221" cx="0" cy="0" r="1" gradientUnits="userSpaceOnUse" gradientTransform="translate(26.1202 27.2153) rotate(-82.4846) scale(24.617 18.1872)">
<stop stop-color="white" stop-opacity="0.55"/>
<stop offset="1" stop-color="white" stop-opacity="0.05"/>
</radialGradient>
<radialGradient id="paint5_radial_40_221" cx="0" cy="0" r="1" gradientUnits="userSpaceOnUse" gradientTransform="translate(14.2332 22.8933) rotate(-77.7214) scale(21.0216 14.3362)">
<stop stop-color="white" stop-opacity="0.83"/>
<stop offset="1" stop-color="white" stop-opacity="0.4"/>
</radialGradient>
<radialGradient id="paint6_radial_40_221" cx="0" cy="0" r="1" gradientUnits="userSpaceOnUse" gradientTransform="translate(22.9004 11.3742) rotate(102.236) scale(10.938 7.37591)">
<stop stop-color="white" stop-opacity="0"/>
<stop offset="1" stop-color="white" stop-opacity="0.17"/>
</radialGradient>
<radialGradient id="paint7_radial_40_221" cx="0" cy="0" r="1" gradientUnits="userSpaceOnUse" gradientTransform="translate(10.0858 17.2985) rotate(45.3237) scale(8.05964 17.1662)">
<stop stop-color="white" stop-opacity="0.2"/>
<stop offset="1" stop-color="white" stop-opacity="0.44"/>
</radialGradient>
<radialGradient id="paint8_radial_40_221" cx="0" cy="0" r="1" gradientUnits="userSpaceOnUse" gradientTransform="translate(16.1706 21.1122) rotate(80.2016) scale(9.4464 20.0599)">
<stop stop-color="white" stop-opacity="0.12"/>
<stop offset="1" stop-color="white" stop-opacity="0.35"/>
</radialGradient>
<radialGradient id="paint9_radial_40_221" cx="0" cy="0" r="1" gradientUnits="userSpaceOnUse" gradientTransform="translate(28.696 28.8251) rotate(-152.297) scale(14.394 45.2971)">
<stop stop-color="white" stop-opacity="0.21"/>
<stop offset="0.46738" stop-color="white" stop-opacity="0.19"/>
<stop offset="1" stop-color="white" stop-opacity="0.29"/>
</radialGradient>
<clipPath id="clip0_40_221">
<rect width="40" height="40" fill="white"/>
</clipPath>
</defs>
</svg>
