<svg width="40" height="40" viewBox="0 0 40 40" fill="none" xmlns="http://www.w3.org/2000/svg">
<path d="M5.46154 2H34.5385C36.4504 2 38 3.54958 38 5.46154V34.5385C38 36.4504 36.4504 38 34.5385 38H5.46154C3.54958 38 2 36.4504 2 34.5385V5.46154C2 3.54958 3.54958 2 5.46154 2Z" fill="url(#paint0_linear_46_137)"/>
<path d="M5.46155 2.69231H34.5385C36.0678 2.69231 37.3077 3.93224 37.3077 5.46154V31.0769C37.3077 32.6062 36.0678 33.8462 34.5385 33.8462H5.46155C3.93226 33.8462 2.69232 32.6062 2.69232 31.0769V5.46154C2.69232 3.93224 3.93226 2.69231 5.46155 2.69231Z" fill="white"/>
<path d="M15.5581 6.43915L12.9674 10.0873V12.1507L10.712 13.223L10.6917 13.2135V26.6702L19.4821 30.8227L20.0189 31.0769L20.5557 30.8227L29.3462 26.6702V13.2135L29.3299 13.2216L27.0745 12.148V10.0873L26.9961 9.97641L24.4838 6.43915L21.893 10.0873V10.0913L20.0068 7.4357L18.1367 10.0711L18.0691 9.97641L15.5581 6.43915ZM16.0165 8.55799L17.0185 9.96965H14.0978L15.0876 8.57557L16.0165 8.55799ZM24.9422 8.55799L25.9441 9.96965H23.0234L24.0132 8.57557L24.9422 8.55799ZM20.4651 9.55589L21.4671 10.9675H18.5464L19.5376 9.57212L20.4651 9.55589ZM13.8206 10.6809H15.2052V15.3459L13.8206 14.6914V10.6809ZM15.9165 10.6809H17.2957V16.3329L15.9165 15.6812V10.6809ZM22.7462 10.6809H24.1309V15.6771L22.7462 16.3316V10.6809ZM24.8421 10.6809H26.2213V14.6901L24.8421 15.3404V10.6809ZM18.2692 11.6788H19.6552V17.4471L18.2692 16.7927V11.6788ZM20.3664 11.6788H21.7443V16.8048L20.3664 17.4552V11.6788ZM27.0745 13.2121L28.2942 13.7097L27.0745 14.2858V13.2121ZM12.9674 13.2135V14.2885L11.7478 13.7124L12.9674 13.2135ZM11.7667 14.9091L19.4821 18.5532V29.6355L11.7667 25.9901V14.9091ZM28.2725 14.9091V25.9901L20.5557 29.6355V18.5545L28.2725 14.9091Z" fill="black"/>
<defs>
<linearGradient id="paint0_linear_46_137" x1="2.00002" y1="37.9999" x2="38" y2="37.9999" gradientUnits="userSpaceOnUse">
<stop stop-color="#D5D3CF"/>
<stop offset="0.0357143" stop-color="#E4E1DE"/>
<stop offset="0.0714286" stop-color="#D5D3CF"/>
<stop offset="0.928571" stop-color="#D5D3CF"/>
<stop offset="0.964286" stop-color="#E4E1DE"/>
<stop offset="1" stop-color="#D5D3CF"/>
</linearGradient>
</defs>
</svg>
