<svg width="40" height="40" viewBox="0 0 40 40" fill="none" xmlns="http://www.w3.org/2000/svg">
<g clip-path="url(#clip0_40_446)">
<g clip-path="url(#clip1_40_446)">
<mask id="mask0_40_446" style="mask-type:luminance" maskUnits="userSpaceOnUse" x="0" y="0" width="40" height="40">
<path d="M0 0H40V40H0V0Z" fill="white"/>
</mask>
<g mask="url(#mask0_40_446)">
<path d="M-0.0800173 8.48562C-0.199705 6.69437 1.36686 5.25125 3.14248 5.51719L19.5837 7.97812C19.8597 8.01942 20.1403 8.01942 20.4162 7.97812L36.8575 5.51719C38.6328 5.25156 40.1997 6.69437 40.08 8.48594L38.6437 30.0328C38.5331 31.69 37.0184 32.8909 35.3797 32.6206L20.4578 30.16C20.1546 30.11 19.8453 30.11 19.5422 30.16L4.6203 32.6206C2.98155 32.8909 1.46686 31.69 1.35623 30.0328L-0.0800173 8.48594V8.48562Z" fill="#1C71D8"/>
<path d="M30.9375 3.75H9.0625C7.5092 3.75 6.25 5.0092 6.25 6.5625V33.4375C6.25 34.9908 7.5092 36.25 9.0625 36.25H30.9375C32.4908 36.25 33.75 34.9908 33.75 33.4375V6.5625C33.75 5.0092 32.4908 3.75 30.9375 3.75Z" fill="url(#paint0_linear_40_446)"/>
<path d="M30.9375 3.75H9.0625C7.5092 3.75 6.25 5.0092 6.25 6.5625V25.9375C6.25 27.4908 7.5092 28.75 9.0625 28.75H30.9375C32.4908 28.75 33.75 27.4908 33.75 25.9375V6.5625C33.75 5.0092 32.4908 3.75 30.9375 3.75Z" fill="#3584E4"/>
<path d="M15.3125 14.375H24.6875L23.8872 36.2525C23.8106 38.3441 22.0928 40 20 40C17.9072 40 16.1894 38.3441 16.1128 36.2525L15.3125 14.375Z" fill="url(#paint1_linear_40_446)"/>
<path d="M15.3125 14.375H24.6875L24.375 23.4375H15.625L15.3125 14.375Z" fill="url(#paint2_linear_40_446)"/>
<path d="M20 39.0625C21.5533 39.0625 22.8125 37.8033 22.8125 36.25C22.8125 34.6967 21.5533 33.4375 20 33.4375C18.4467 33.4375 17.1875 34.6967 17.1875 36.25C17.1875 37.8033 18.4467 39.0625 20 39.0625Z" fill="#1C71D8"/>
<path d="M26.6353 32.2528C26.6261 32.1657 26.6354 32.0777 26.6625 31.9944C26.6895 31.9111 26.7338 31.8344 26.7924 31.7693C26.851 31.7042 26.9226 31.6522 27.0026 31.6165C27.0827 31.5809 27.1693 31.5625 27.2569 31.5625H29.6181C29.7057 31.5625 29.7924 31.5808 29.8724 31.6164C29.9524 31.652 30.0241 31.7041 30.0828 31.7692C30.1414 31.8343 30.1857 31.911 30.2128 31.9943C30.2399 32.0776 30.2491 32.1657 30.24 32.2528L29.8181 36.2569C29.7821 36.598 29.6211 36.9138 29.3662 37.1432C29.1112 37.3727 28.7803 37.4997 28.4373 37.4997C28.0943 37.4997 27.7634 37.3727 27.5085 37.1432C27.2535 36.9138 27.0925 36.598 27.0565 36.2569L26.6353 32.2528Z" fill="url(#paint3_linear_40_446)"/>
<path d="M9.76029 32.2528C9.75114 32.1657 9.76039 32.0777 9.78746 31.9944C9.81453 31.9111 9.8588 31.8344 9.9174 31.7693C9.97601 31.7042 10.0476 31.6522 10.1276 31.6165C10.2077 31.5809 10.2943 31.5625 10.3819 31.5625H12.7431C12.8307 31.5625 12.9174 31.5808 12.9974 31.6164C13.0774 31.652 13.1491 31.7041 13.2078 31.7692C13.2664 31.8343 13.3107 31.911 13.3378 31.9943C13.3649 32.0776 13.3741 32.1657 13.365 32.2528L12.9431 36.2569C12.9071 36.598 12.7461 36.9138 12.4912 37.1432C12.2362 37.3727 11.9053 37.4997 11.5623 37.4997C11.2193 37.4997 10.8884 37.3727 10.6335 37.1432C10.3785 36.9138 10.2175 36.598 10.1815 36.2569L9.76029 32.2528Z" fill="url(#paint4_linear_40_446)"/>
<path d="M28.4375 20.625C29.3004 20.625 30 19.9254 30 19.0625C30 18.1996 29.3004 17.5 28.4375 17.5H27.1875C26.3246 17.5 25.625 18.1996 25.625 19.0625C25.625 19.9254 26.3246 20.625 27.1875 20.625H28.4375Z" fill="url(#paint5_radial_40_446)"/>
<path d="M12.8125 20.625C13.6754 20.625 14.375 19.9254 14.375 19.0625C14.375 18.1996 13.6754 17.5 12.8125 17.5H11.5625C10.6996 17.5 10 18.1996 10 19.0625C10 19.9254 10.6996 20.625 11.5625 20.625H12.8125Z" fill="url(#paint6_radial_40_446)"/>
</g>
</g>
</g>
<defs>
<linearGradient id="paint0_linear_40_446" x1="6.25" y1="36.25" x2="33.75" y2="36.25" gradientUnits="userSpaceOnUse">
<stop stop-color="#1A5FB4"/>
<stop offset="0.143" stop-color="#1C71D8"/>
<stop offset="0.857" stop-color="#1C71D8"/>
<stop offset="1" stop-color="#1A5FB4"/>
</linearGradient>
<linearGradient id="paint1_linear_40_446" x1="15.9375" y1="40" x2="24.0625" y2="40" gradientUnits="userSpaceOnUse">
<stop stop-color="#3584E4"/>
<stop offset="0.678" stop-color="#62A0EA"/>
<stop offset="1" stop-color="#3584E4"/>
</linearGradient>
<linearGradient id="paint2_linear_40_446" x1="20" y1="14.375" x2="20" y2="23.4375" gradientUnits="userSpaceOnUse">
<stop stop-color="#3584E4"/>
<stop offset="1" stop-color="#3584E4" stop-opacity="0"/>
</linearGradient>
<linearGradient id="paint3_linear_40_446" x1="26.5625" y1="37.5" x2="30.3125" y2="37.5" gradientUnits="userSpaceOnUse">
<stop stop-color="#F9F06B"/>
<stop offset="0.714" stop-color="#FFFBC4"/>
<stop offset="1" stop-color="#F9F06B"/>
</linearGradient>
<linearGradient id="paint4_linear_40_446" x1="9.68748" y1="37.5" x2="13.4375" y2="37.5" gradientUnits="userSpaceOnUse">
<stop stop-color="#F9F06B"/>
<stop offset="0.714" stop-color="#FFFBC4"/>
<stop offset="1" stop-color="#F9F06B"/>
</linearGradient>
<radialGradient id="paint5_radial_40_446" cx="0" cy="0" r="1" gradientUnits="userSpaceOnUse" gradientTransform="translate(28.5938 18.5937) rotate(180) scale(2.34375 1.67411)">
<stop stop-color="#77767B"/>
<stop offset="0.209" stop-color="#3D3846"/>
<stop offset="0.6"/>
<stop offset="1"/>
</radialGradient>
<radialGradient id="paint6_radial_40_446" cx="0" cy="0" r="1" gradientUnits="userSpaceOnUse" gradientTransform="translate(12.9688 18.5937) rotate(180) scale(2.34375 1.67411)">
<stop stop-color="#77767B"/>
<stop offset="0.209" stop-color="#3D3846"/>
<stop offset="0.6"/>
<stop offset="1"/>
</radialGradient>
<clipPath id="clip0_40_446">
<rect width="40" height="40" fill="white"/>
</clipPath>
<clipPath id="clip1_40_446">
<rect width="40" height="40" fill="white"/>
</clipPath>
</defs>
</svg>
