<svg width="40" height="40" viewBox="0 0 40 40" fill="none" xmlns="http://www.w3.org/2000/svg">
<g clip-path="url(#clip0_46_151)">
<mask id="mask0_46_151" style="mask-type:luminance" maskUnits="userSpaceOnUse" x="0" y="0" width="40" height="40">
<path d="M40 0H0V40H40V0Z" fill="white"/>
</mask>
<g mask="url(#mask0_46_151)">
<path d="M32.7734 0H7.22656C3.23544 0 0 3.23544 0 7.22656V32.7734C0 36.7646 3.23544 40 7.22656 40H32.7734C36.7646 40 40 36.7646 40 32.7734V7.22656C40 3.23544 36.7646 0 32.7734 0Z" fill="#202020"/>
<path d="M20.0204 25.2772C22.9237 25.2772 25.2772 22.9237 25.2772 20.0204C25.2772 17.1172 22.9237 14.7637 20.0204 14.7637C17.1172 14.7637 14.7637 17.1172 14.7637 20.0204C14.7637 22.9237 17.1172 25.2772 20.0204 25.2772Z" stroke="#F2F0E3" stroke-width="1.17188"/>
<path d="M20.0204 29.2175C25.0998 29.2175 29.2175 25.0998 29.2175 20.0204C29.2175 14.941 25.0998 10.8234 20.0204 10.8234C14.941 10.8234 10.8234 14.941 10.8234 20.0204C10.8234 25.0998 14.941 29.2175 20.0204 29.2175Z" stroke="#F2F0E3" stroke-width="1.95312"/>
<path d="M20.0204 33.8933C27.6822 33.8933 33.8933 27.6822 33.8933 20.0204C33.8933 12.3587 27.6822 6.14758 20.0204 6.14758C12.3587 6.14758 6.14758 12.3587 6.14758 20.0204C6.14758 27.6822 12.3587 33.8933 20.0204 33.8933Z" stroke="#F2F0E3" stroke-width="2.73438"/>
</g>
</g>
<defs>
<clipPath id="clip0_46_151">
<rect width="40" height="40" fill="white"/>
</clipPath>
</defs>
</svg>
